<?xml version="1.0" encoding="UTF-8"?>
<svg version="1.1" xmlns="http://www.w3.org/2000/svg" viewBox="0 0 256 256">
<rect width="256" height="256" fill="none"/>
<g transform="translate(0,38)">
<path d="M0 0 C2.28984157 1.65331521 4.18573792 3.43308246 6.140625 5.46875 C8.1131644 7.42380484 8.1131644 7.42380484 12 7 C13.93247655 5.46911011 13.93247655 5.46911011 15.75 3.5 C19.12426421 0.43816766 21.36976019 -1.12255198 25.9921875 -0.6875 C30.16516843 0.74138063 32.98286644 3.90216122 36 7 C36.60585937 7.57105469 37.21171875 8.14210938 37.8359375 8.73046875 C42 12.68926056 42 12.68926056 42 15 C42.556875 15.2475 43.11375 15.495 43.6875 15.75 C47.92251571 18.03919768 50.46151429 21.41819823 52 25.9375 C52 30.03453808 51.03763127 32.45057779 49 36 C45.30632183 39.064967 43.85041092 40 39 40 C39.2165625 41.7325 39.2165625 41.7325 39.4375 43.5 C39.4316575 47.31890602 38.57248418 48.97178439 35.9921875 51.75390625 C35.35627686 52.44436035 34.72036621 53.13481445 34.06518555 53.84619141 C30.64285752 57.41538136 27.19383176 60.95066592 23.6875 64.4375 C22.97271484 65.15615234 22.25792969 65.87480469 21.52148438 66.61523438 C20.49571289 67.63907227 20.49571289 67.63907227 19.44921875 68.68359375 C18.83393311 69.29775146 18.21864746 69.91190918 17.5847168 70.54467773 C14.72960656 73.16666389 12.04888939 73.52343333 8.19506836 73.46948242 C5.46511544 72.8855986 4.29647062 71.87580213 2.25390625 69.98828125 C1.2165332 69.03526123 1.2165332 69.03526123 0.15820312 68.06298828 C-3.41678774 64.6457176 -6.9502082 61.19429204 -10.4375 57.6875 C-11.15615234 56.97271484 -11.87480469 56.25792969 -12.61523438 55.52148438 C-13.29779297 54.83763672 -13.98035156 54.15378906 -14.68359375 53.44921875 C-15.29775146 52.83393311 -15.91190918 52.21864746 -16.54467773 51.5847168 C-19.82131283 48.01675196 -19.07470192 44.63151888 -19 40 C-20.051875 39.95875 -21.10375 39.9175 -22.1875 39.875 C-27.0859232 38.75077172 -28.35037416 37.20822928 -31 33 C-32.49840487 27.66193265 -32.04944396 25.48247887 -29 21 C-9.91188375 -2.22582653 -9.91188375 -2.22582653 0 0 Z " fill="#364958" transform="translate(106,97)"/>
<path d="M0 0 C2.9375 1.9375 2.9375 1.9375 5 4 C5 4.66 5 5.32 5 6 C5.66 6 6.32 6 7 6 C8.41015625 7.43359375 8.41015625 7.43359375 10.0625 9.4375 C13.55732115 13.56506772 17.30479777 17.34737953 21.1796875 21.1171875 C24.53395094 24.58661878 24.08702869 27.30045095 24 32 C24.886875 32.061875 25.77375 32.12375 26.6875 32.1875 C31.44423179 33.35424553 33.54857423 36.02078304 36.375 39.875 C37.54271426 43.84522849 37.15968261 47.23267547 34.859375 50.73828125 C32.99958419 52.9315194 31.02425484 54.95624993 29 57 C27.86540712 58.18313527 26.73133598 59.36677098 25.59765625 60.55078125 C24.35833838 61.82704488 23.11743744 63.10177306 21.875 64.375 C21.27727783 64.9944751 20.67955566 65.6139502 20.0637207 66.25219727 C16.10450757 70.23888586 13.02251169 72.86566615 7.1875 73.125 C2.91023168 71.61537589 0.82594581 68.93339396 -2.0703125 65.51953125 C-2.70710938 65.01808594 -3.34390625 64.51664062 -4 64 C-7.10543372 64.85869947 -8.80468057 66.68221749 -10.875 69.0625 C-13.76240195 72.02244974 -15.72713096 73.08901811 -20 73 C-24.30442268 71.16136549 -27.36638487 69.0171758 -30.671875 65.7265625 C-31.91517578 64.4890625 -31.91517578 64.4890625 -33.18359375 63.2265625 C-34.03050781 62.36804688 -34.87742187 61.50953125 -35.75 60.625 C-36.61238281 59.77421875 -37.47476563 58.9234375 -38.36328125 58.046875 C-39.18699219 57.21929687 -40.01070313 56.39171875 -40.859375 55.5390625 C-41.60670898 54.78834473 -42.35404297 54.03762695 -43.12402344 53.26416016 C-46.05990567 49.72077497 -47.01953342 47.09387167 -46.9375 42.5 C-45.51775932 37.19963479 -42.44470546 34.96313697 -38 32 C-36.68 32 -35.36 32 -34 32 C-34.2165625 30.515 -34.2165625 30.515 -34.4375 29 C-34.37162802 23.4887114 -30.71790704 20.68169366 -27 17 C-25.92634473 15.91479274 -24.85348706 14.82879604 -23.78125 13.7421875 C-21.01322254 10.94873658 -18.22906502 8.17260277 -15.42431641 5.41601562 C-14.19133703 4.19022194 -12.98910808 2.93364321 -11.79296875 1.671875 C-8.0714878 -1.7982641 -4.67603864 -1.04807763 0 0 Z " fill="#2D5070" transform="translate(121,7)"/>
<path d="M0 0 C3.81421494 2.84880997 7.02911695 6.18895781 10.3125 9.625 C11.20517578 10.51574219 12.09785156 11.40648438 13.01757812 12.32421875 C23.08947163 22.61589022 23.08947163 22.61589022 22.9375 30.0625 C20.56400516 37.4994505 14.80241376 42.47159703 9.375 47.8125 C8.59898437 48.58787109 7.82296875 49.36324219 7.0234375 50.16210938 C2.0890285 55.0579683 -0.4373728 57.52268207 -7.546875 57.48828125 C-12.11055821 56.57990481 -14.898035 53.27741551 -18 50 C-18.56976563 49.47019531 -19.13953125 48.94039062 -19.7265625 48.39453125 C-21 47 -21 47 -21 45 C-22.32506097 44.31703906 -23.66014993 43.65347074 -25 43 C-26.8515625 41.4140625 -26.8515625 41.4140625 -28.625 39.625 C-29.21539062 39.03976563 -29.80578125 38.45453125 -30.4140625 37.8515625 C-33.94008287 33.73497714 -34.55942644 30.40778891 -34 25 C-30.61607488 18.79768245 -25.41634781 14.12152697 -20.4375 9.1875 C-19.57447266 8.31673828 -18.71144531 7.44597656 -17.82226562 6.54882812 C-16.99275391 5.72189453 -16.16324219 4.89496094 -15.30859375 4.04296875 C-14.17635376 2.91411255 -14.17635376 2.91411255 -13.02124023 1.76245117 C-9.09184673 -1.66384327 -4.74024895 -1.74782355 0 0 Z " fill="#163857" transform="translate(174,60)"/>
<path d="M0 0 C3.45532004 2.66100109 6.46604379 5.66698968 9.46582031 8.82788086 C10.87648864 10.31406834 12.31008412 11.77460513 13.75 13.23242188 C22.71643619 22.44792574 22.71643619 22.44792574 23.375 28.375 C22.53242478 36.51989383 15.42343738 41.84733301 9.875 47.3125 C9.05128906 48.13556641 8.22757813 48.95863281 7.37890625 49.80664062 C-0.56174461 57.68880878 -0.56174461 57.68880878 -7.4453125 57.58984375 C-12.83600959 56.34520268 -16.26405289 51.83586843 -20 48 C-20.98587921 47.08442341 -21.97688425 46.17433865 -22.97265625 45.26953125 C-34.06972711 35.03081737 -34.06972711 35.03081737 -34 28 C-32.11454789 19.84145489 -26.89206057 15.24294431 -21 9.5625 C-20.08476563 8.65306641 -19.16953125 7.74363281 -18.2265625 6.80664062 C-8.12949296 -3.10536532 -8.12949296 -3.10536532 0 0 Z " fill="#027EBF" transform="translate(69,60)"/>
<path d="M0 0 C2.80775014 2.39506245 2.98580495 2.72083075 3.1875 6.6875 C3.0946875 8.3271875 3.0946875 8.3271875 3 10 C4.3303125 10.0928125 4.3303125 10.0928125 5.6875 10.1875 C10.44423179 11.35424553 12.54857423 14.02078304 15.375 17.875 C16.54271426 21.84522849 16.15968261 25.23267547 13.859375 28.73828125 C11.99958419 30.9315194 10.02425484 32.95624993 8 35 C6.86540712 36.18313527 5.73133598 37.36677098 4.59765625 38.55078125 C3.35833838 39.82704488 2.11743744 41.10177306 0.875 42.375 C0.27727783 42.9944751 -0.32044434 43.6139502 -0.9362793 44.25219727 C-4.89549243 48.23888586 -7.97748831 50.86566615 -13.8125 51.125 C-18.08976832 49.61537589 -20.17405419 46.93339396 -23.0703125 43.51953125 C-23.70710938 43.01808594 -24.34390625 42.51664063 -25 42 C-28.10543372 42.85869947 -29.80468057 44.68221749 -31.875 47.0625 C-34.76240195 50.02244974 -36.72713096 51.08901811 -41 51 C-45.30442268 49.16136549 -48.36638487 47.0171758 -51.671875 43.7265625 C-52.50074219 42.9015625 -53.32960938 42.0765625 -54.18359375 41.2265625 C-55.03050781 40.36804688 -55.87742187 39.50953125 -56.75 38.625 C-57.61238281 37.77421875 -58.47476563 36.9234375 -59.36328125 36.046875 C-60.18699219 35.21929687 -61.01070313 34.39171875 -61.859375 33.5390625 C-62.60670898 32.78834473 -63.35404297 32.03762695 -64.12402344 31.26416016 C-67.05990567 27.72077497 -68.01953342 25.09387167 -67.9375 20.5 C-66.51775932 15.19963479 -63.44470546 12.96313697 -59 10 C-57.68 10 -56.36 10 -55 10 C-55.04125 8.88625 -55.0825 7.7725 -55.125 6.625 C-55 3 -55 3 -53 1 C-53.19142578 1.89138672 -53.19142578 1.89138672 -53.38671875 2.80078125 C-53.94544399 7.46649978 -53.74757848 10.03901703 -50.796875 13.83203125 C-48.85015009 15.73354534 -46.90266379 17.58376796 -44.8828125 19.40234375 C-42.47907325 21.56831476 -40.38966478 23.71905534 -38.3125 26.1875 C-35.84931295 29.03556003 -33.37694651 31.86727719 -30.8125 34.625 C-29.86310547 35.66527344 -29.86310547 35.66527344 -28.89453125 36.7265625 C-28.26933594 37.14679688 -27.64414063 37.56703125 -27 38 C-23.24015886 36.69705465 -20.84957198 34.09346154 -18.0859375 31.31640625 C-16.69761719 29.92518555 -16.69761719 29.92518555 -15.28125 28.50585938 C-14.80429688 28.02270264 -14.32734375 27.5395459 -13.8359375 27.04174805 C-12.37811018 25.56564916 -10.91242394 24.09772515 -9.4453125 22.63085938 C-1.81682738 15.52869697 -1.81682738 15.52869697 0.125 5.8125 C0.10695313 4.72582031 0.08890625 3.63914063 0.0703125 2.51953125 C0.04710937 1.68808594 0.02390625 0.85664063 0 0 Z " fill="#01919F" transform="translate(142,29)"/>
<path d="M0 0 C3.04894091 1.96815962 5.47569599 4.40817345 8 7 C8.60585937 7.57105469 9.21171875 8.14210938 9.8359375 8.73046875 C14 12.68926056 14 12.68926056 14 15 C14.556875 15.2475 15.11375 15.495 15.6875 15.75 C19.92251571 18.03919768 22.46151429 21.41819823 24 25.9375 C24 30.03453808 23.03763127 32.45057779 21 36 C17.30632183 39.064967 15.85041092 40 11 40 C11 42.64 11 45.28 11 48 C10.67 48 10.34 48 10 48 C9.95480225 47.14341797 9.95480225 47.14341797 9.90869141 46.26953125 C9.18184626 36.46394201 2.1284591 31.30653901 -4.625 25 C-6.40011042 23.30994495 -8.16943846 21.6142048 -9.93441772 19.91357422 C-11.02912528 18.86225098 -12.13070493 17.8180278 -13.23965454 16.78173828 C-17 13.21907176 -17 13.21907176 -17 11 C-17.99 11 -18.98 11 -20 11 C-20.6875 9 -20.6875 9 -21 7 C-20.41476563 7.23460938 -19.82953125 7.46921875 -19.2265625 7.7109375 C-16.91510612 8.27531953 -16.91510612 8.27531953 -15.1484375 6.6015625 C-14.56320313 5.94929688 -13.97796875 5.29703125 -13.375 4.625 C-9.39466665 0.26227654 -6.03479897 -1.29620682 0 0 Z " fill="#55BF91" transform="translate(134,97)"/>
<path d="M0 0 C2.80775014 2.39506245 2.98580495 2.72083075 3.1875 6.6875 C3.0946875 8.3271875 3.0946875 8.3271875 3 10 C4.3303125 10.0928125 4.3303125 10.0928125 5.6875 10.1875 C10.44423179 11.35424553 12.54857423 14.02078304 15.375 17.875 C16.54271426 21.84522849 16.15968261 25.23267547 13.859375 28.73828125 C11.99958419 30.9315194 10.02425484 32.95624993 8 35 C6.86540712 36.18313527 5.73133598 37.36677098 4.59765625 38.55078125 C3.35833838 39.82704488 2.11743744 41.10177306 0.875 42.375 C0.27727783 42.9944751 -0.32044434 43.6139502 -0.9362793 44.25219727 C-4.89549243 48.23888586 -7.97748831 50.86566615 -13.8125 51.125 C-18.71200416 49.39576324 -21.56443976 45.78375891 -25 42 C-25.66 41.34 -26.32 40.68 -27 40 C-25.87972412 38.88757935 -25.87972412 38.88757935 -24.73681641 37.75268555 C-21.96490702 34.99888491 -19.19631549 32.24176904 -16.42871094 29.48364258 C-15.23072005 28.29067845 -14.03183291 27.09861366 -12.83203125 25.9074707 C-11.10700493 24.1945824 -9.38523424 22.47847916 -7.6640625 20.76171875 C-7.12754059 20.23035812 -6.59101868 19.6989975 -6.03823853 19.15153503 C-1.50989005 14.62387012 0.26378877 12.26617801 0.125 5.8125 C0.10695312 4.72582031 0.08890625 3.63914063 0.0703125 2.51953125 C0.04710937 1.68808594 0.02390625 0.85664063 0 0 Z " fill="#AFB7BE" transform="translate(142,29)"/>
<path d="M0 0 C3.84320897 2.18564174 6.59538366 4.48268871 7.75 8.8125 C7.8325 9.534375 7.915 10.25625 8 11 C8.99 11.33 9.98 11.66 11 12 C10.236875 12.433125 9.47375 12.86625 8.6875 13.3125 C6.03713747 14.83752358 6.03713747 14.83752358 4.3125 16.6875 C3 18 3 18 1 18 C0.29581558 19.31390507 -0.36502934 20.65128413 -1 22 C-4.49873964 26.78012517 -8.72232272 30.65339947 -13.265625 34.421875 C-15.22768174 36.0792468 -15.22768174 36.0792468 -17 39 C-20.0625 38.8125 -20.0625 38.8125 -23 38 C-23.33 37.34 -23.66 36.68 -24 36 C-25.175625 36.0928125 -25.175625 36.0928125 -26.375 36.1875 C-29 36 -29 36 -30.875 34 C-32.33168407 30.11550914 -32.13658859 26.92229072 -31 23 C-29.46914709 20.52891615 -27.5709238 18.58984535 -25.5 16.5625 C-24.96262207 16.01045898 -24.42524414 15.45841797 -23.87158203 14.88964844 C-22.26275584 13.24405181 -20.63258 11.62197884 -19 10 C-17.65035156 8.61361328 -17.65035156 8.61361328 -16.2734375 7.19921875 C-7.77241622 -1.48179158 -7.77241622 -1.48179158 0 0 Z " fill="#067E7D" transform="translate(106,97)"/>
</g>
</svg>
