<?xml version="1.0" encoding="UTF-8"?>
<svg version="1.1" xmlns="http://www.w3.org/2000/svg" width="256" height="180">
<path d="M0 0 C2.28984157 1.65331521 4.18573792 3.43308246 6.140625 5.46875 C8.1131644 7.42380484 8.1131644 7.42380484 12 7 C13.93247655 5.46911011 13.93247655 5.46911011 15.75 3.5 C19.12426421 0.43816766 21.36976019 -1.12255198 25.9921875 -0.6875 C30.16516843 0.74138063 32.98286644 3.90216122 36 7 C36.60585937 7.57105469 37.21171875 8.14210938 37.8359375 8.73046875 C42 12.68926056 42 12.68926056 42 15 C42.556875 15.2475 43.11375 15.495 43.6875 15.75 C47.92251571 18.03919768 50.46151429 21.41819823 52 25.9375 C52 30.03453808 51.03763127 32.45057779 49 36 C45.30632183 39.064967 43.85041092 40 39 40 C39.2165625 41.7325 39.2165625 41.7325 39.4375 43.5 C39.4316575 47.31890602 38.57248418 48.97178439 35.9921875 51.75390625 C35.35627686 52.44436035 34.72036621 53.13481445 34.06518555 53.84619141 C30.64285752 57.41538136 27.19383176 60.95066592 23.6875 64.4375 C22.97271484 65.15615234 22.25792969 65.87480469 21.52148438 66.61523438 C20.49571289 67.63907227 20.49571289 67.63907227 19.44921875 68.68359375 C18.83393311 69.29775146 18.21864746 69.91190918 17.5847168 70.54467773 C14.72960656 73.16666389 12.04888939 73.52343333 8.19506836 73.46948242 C5.46511544 72.8855986 4.29647062 71.87580213 2.25390625 69.98828125 C1.2165332 69.03526123 1.2165332 69.03526123 0.15820312 68.06298828 C-3.41678774 64.6457176 -6.9502082 61.19429204 -10.4375 57.6875 C-11.15615234 56.97271484 -11.87480469 56.25792969 -12.61523438 55.52148438 C-13.29779297 54.83763672 -13.98035156 54.15378906 -14.68359375 53.44921875 C-15.29775146 52.83393311 -15.91190918 52.21864746 -16.54467773 51.5847168 C-19.82131283 48.01675196 -19.07470192 44.63151888 -19 40 C-20.051875 39.95875 -21.10375 39.9175 -22.1875 39.875 C-27.0859232 38.75077172 -28.35037416 37.20822928 -31 33 C-32.49840487 27.66193265 -32.04944396 25.48247887 -29 21 C-9.91188375 -2.22582653 -9.91188375 -2.22582653 0 0 Z " fill="#364958" transform="translate(106,97)"/>
<path d="M0 0 C2.9375 1.9375 2.9375 1.9375 5 4 C5 4.66 5 5.32 5 6 C5.66 6 6.32 6 7 6 C8.41015625 7.43359375 8.41015625 7.43359375 10.0625 9.4375 C13.55732115 13.56506772 17.30479777 17.34737953 21.1796875 21.1171875 C24.53395094 24.58661878 24.08702869 27.30045095 24 32 C24.886875 32.061875 25.77375 32.12375 26.6875 32.1875 C31.44423179 33.35424553 33.54857423 36.02078304 36.375 39.875 C37.54271426 43.84522849 37.15968261 47.23267547 34.859375 50.73828125 C32.99958419 52.9315194 31.02425484 54.95624993 29 57 C27.86540712 58.18313527 26.73133598 59.36677098 25.59765625 60.55078125 C24.35833838 61.82704488 23.11743744 63.10177306 21.875 64.375 C21.27727783 64.9944751 20.67955566 65.6139502 20.0637207 66.25219727 C16.10450757 70.23888586 13.02251169 72.86566615 7.1875 73.125 C2.91023168 71.61537589 0.82594581 68.93339396 -2.0703125 65.51953125 C-2.70710938 65.01808594 -3.34390625 64.51664062 -4 64 C-7.10543372 64.85869947 -8.80468057 66.68221749 -10.875 69.0625 C-13.76240195 72.02244974 -15.72713096 73.08901811 -20 73 C-24.30442268 71.16136549 -27.36638487 69.0171758 -30.671875 65.7265625 C-31.91517578 64.4890625 -31.91517578 64.4890625 -33.18359375 63.2265625 C-34.03050781 62.36804688 -34.87742187 61.50953125 -35.75 60.625 C-36.61238281 59.77421875 -37.47476563 58.9234375 -38.36328125 58.046875 C-39.18699219 57.21929687 -40.01070313 56.39171875 -40.859375 55.5390625 C-41.60670898 54.78834473 -42.35404297 54.03762695 -43.12402344 53.26416016 C-46.05990567 49.72077497 -47.01953342 47.09387167 -46.9375 42.5 C-45.51775932 37.19963479 -42.44470546 34.96313697 -38 32 C-36.68 32 -35.36 32 -34 32 C-34.2165625 30.515 -34.2165625 30.515 -34.4375 29 C-34.37162802 23.4887114 -30.71790704 20.68169366 -27 17 C-25.92634473 15.91479274 -24.85348706 14.82879604 -23.78125 13.7421875 C-21.01322254 10.94873658 -18.22906502 8.17260277 -15.42431641 5.41601562 C-14.19133703 4.19022194 -12.98910808 2.93364321 -11.79296875 1.671875 C-8.0714878 -1.7982641 -4.67603864 -1.04807763 0 0 Z " fill="#2D5070" transform="translate(121,7)"/>
<path d="M0 0 C3.81421494 2.84880997 7.02911695 6.18895781 10.3125 9.625 C11.20517578 10.51574219 12.09785156 11.40648438 13.01757812 12.32421875 C23.08947163 22.61589022 23.08947163 22.61589022 22.9375 30.0625 C20.56400516 37.4994505 14.80241376 42.47159703 9.375 47.8125 C8.59898437 48.58787109 7.82296875 49.36324219 7.0234375 50.16210938 C2.0890285 55.0579683 -0.4373728 57.52268207 -7.546875 57.48828125 C-12.11055821 56.57990481 -14.898035 53.27741551 -18 50 C-18.56976563 49.47019531 -19.13953125 48.94039062 -19.7265625 48.39453125 C-21 47 -21 47 -21 45 C-22.32506097 44.31703906 -23.66014993 43.65347074 -25 43 C-26.8515625 41.4140625 -26.8515625 41.4140625 -28.625 39.625 C-29.21539062 39.03976563 -29.80578125 38.45453125 -30.4140625 37.8515625 C-33.94008287 33.73497714 -34.55942644 30.40778891 -34 25 C-30.61607488 18.79768245 -25.41634781 14.12152697 -20.4375 9.1875 C-19.57447266 8.31673828 -18.71144531 7.44597656 -17.82226562 6.54882812 C-16.99275391 5.72189453 -16.16324219 4.89496094 -15.30859375 4.04296875 C-14.17635376 2.91411255 -14.17635376 2.91411255 -13.02124023 1.76245117 C-9.09184673 -1.66384327 -4.74024895 -1.74782355 0 0 Z " fill="#163857" transform="translate(174,60)"/>
<path d="M0 0 C3.45532004 2.66100109 6.46604379 5.66698968 9.46582031 8.82788086 C10.87648864 10.31406834 12.31008412 11.77460513 13.75 13.23242188 C22.71643619 22.44792574 22.71643619 22.44792574 23.375 28.375 C22.53242478 36.51989383 15.42343738 41.84733301 9.875 47.3125 C9.05128906 48.13556641 8.22757813 48.95863281 7.37890625 49.80664062 C-0.56174461 57.68880878 -0.56174461 57.68880878 -7.4453125 57.58984375 C-12.83600959 56.34520268 -16.26405289 51.83586843 -20 48 C-20.98587921 47.08442341 -21.97688425 46.17433865 -22.97265625 45.26953125 C-34.06972711 35.03081737 -34.06972711 35.03081737 -34 28 C-32.11454789 19.84145489 -26.89206057 15.24294431 -21 9.5625 C-20.08476563 8.65306641 -19.16953125 7.74363281 -18.2265625 6.80664062 C-8.12949296 -3.10536532 -8.12949296 -3.10536532 0 0 Z " fill="#027EBF" transform="translate(69,60)"/>
<path d="M0 0 C2.80775014 2.39506245 2.98580495 2.72083075 3.1875 6.6875 C3.0946875 8.3271875 3.0946875 8.3271875 3 10 C4.3303125 10.0928125 4.3303125 10.0928125 5.6875 10.1875 C10.44423179 11.35424553 12.54857423 14.02078304 15.375 17.875 C16.54271426 21.84522849 16.15968261 25.23267547 13.859375 28.73828125 C11.99958419 30.9315194 10.02425484 32.95624993 8 35 C6.86540712 36.18313527 5.73133598 37.36677098 4.59765625 38.55078125 C3.35833838 39.82704488 2.11743744 41.10177306 0.875 42.375 C0.27727783 42.9944751 -0.32044434 43.6139502 -0.9362793 44.25219727 C-4.89549243 48.23888586 -7.97748831 50.86566615 -13.8125 51.125 C-18.08976832 49.61537589 -20.17405419 46.93339396 -23.0703125 43.51953125 C-23.70710938 43.01808594 -24.34390625 42.51664063 -25 42 C-28.10543372 42.85869947 -29.80468057 44.68221749 -31.875 47.0625 C-34.76240195 50.02244974 -36.72713096 51.08901811 -41 51 C-45.30442268 49.16136549 -48.36638487 47.0171758 -51.671875 43.7265625 C-52.50074219 42.9015625 -53.32960938 42.0765625 -54.18359375 41.2265625 C-55.03050781 40.36804688 -55.87742187 39.50953125 -56.75 38.625 C-57.61238281 37.77421875 -58.47476563 36.9234375 -59.36328125 36.046875 C-60.18699219 35.21929687 -61.01070313 34.39171875 -61.859375 33.5390625 C-62.60670898 32.78834473 -63.35404297 32.03762695 -64.12402344 31.26416016 C-67.05990567 27.72077497 -68.01953342 25.09387167 -67.9375 20.5 C-66.51775932 15.19963479 -63.44470546 12.96313697 -59 10 C-57.68 10 -56.36 10 -55 10 C-55.04125 8.88625 -55.0825 7.7725 -55.125 6.625 C-55 3 -55 3 -53 1 C-53.19142578 1.89138672 -53.19142578 1.89138672 -53.38671875 2.80078125 C-53.94544399 7.46649978 -53.74757848 10.03901703 -50.796875 13.83203125 C-48.85015009 15.73354534 -46.90266379 17.58376796 -44.8828125 19.40234375 C-42.47907325 21.56831476 -40.38966478 23.71905534 -38.3125 26.1875 C-35.84931295 29.03556003 -33.37694651 31.86727719 -30.8125 34.625 C-29.86310547 35.66527344 -29.86310547 35.66527344 -28.89453125 36.7265625 C-28.26933594 37.14679688 -27.64414063 37.56703125 -27 38 C-23.24015886 36.69705465 -20.84957198 34.09346154 -18.0859375 31.31640625 C-16.69761719 29.92518555 -16.69761719 29.92518555 -15.28125 28.50585938 C-14.80429688 28.02270264 -14.32734375 27.5395459 -13.8359375 27.04174805 C-12.37811018 25.56564916 -10.91242394 24.09772515 -9.4453125 22.63085938 C-1.81682738 15.52869697 -1.81682738 15.52869697 0.125 5.8125 C0.10695313 4.72582031 0.08890625 3.63914063 0.0703125 2.51953125 C0.04710937 1.68808594 0.02390625 0.85664063 0 0 Z " fill="#01919F" transform="translate(142,29)"/>
<path d="M0 0 C3.04894091 1.96815962 5.47569599 4.40817345 8 7 C8.60585937 7.57105469 9.21171875 8.14210938 9.8359375 8.73046875 C14 12.68926056 14 12.68926056 14 15 C14.556875 15.2475 15.11375 15.495 15.6875 15.75 C19.92251571 18.03919768 22.46151429 21.41819823 24 25.9375 C24 30.03453808 23.03763127 32.45057779 21 36 C17.30632183 39.064967 15.85041092 40 11 40 C11 42.64 11 45.28 11 48 C10.67 48 10.34 48 10 48 C9.95480225 47.14341797 9.95480225 47.14341797 9.90869141 46.26953125 C9.18184626 36.46394201 2.1284591 31.30653901 -4.625 25 C-6.40011042 23.30994495 -8.16943846 21.6142048 -9.93441772 19.91357422 C-11.02912528 18.86225098 -12.13070493 17.8180278 -13.23965454 16.78173828 C-17 13.21907176 -17 13.21907176 -17 11 C-17.99 11 -18.98 11 -20 11 C-20.6875 9 -20.6875 9 -21 7 C-20.41476563 7.23460938 -19.82953125 7.46921875 -19.2265625 7.7109375 C-16.91510612 8.27531953 -16.91510612 8.27531953 -15.1484375 6.6015625 C-14.56320313 5.94929688 -13.97796875 5.29703125 -13.375 4.625 C-9.39466665 0.26227654 -6.03479897 -1.29620682 0 0 Z " fill="#55BF91" transform="translate(134,97)"/>
<path d="M0 0 C2.80775014 2.39506245 2.98580495 2.72083075 3.1875 6.6875 C3.0946875 8.3271875 3.0946875 8.3271875 3 10 C4.3303125 10.0928125 4.3303125 10.0928125 5.6875 10.1875 C10.44423179 11.35424553 12.54857423 14.02078304 15.375 17.875 C16.54271426 21.84522849 16.15968261 25.23267547 13.859375 28.73828125 C11.99958419 30.9315194 10.02425484 32.95624993 8 35 C6.86540712 36.18313527 5.73133598 37.36677098 4.59765625 38.55078125 C3.35833838 39.82704488 2.11743744 41.10177306 0.875 42.375 C0.27727783 42.9944751 -0.32044434 43.6139502 -0.9362793 44.25219727 C-4.89549243 48.23888586 -7.97748831 50.86566615 -13.8125 51.125 C-18.71200416 49.39576324 -21.56443976 45.78375891 -25 42 C-25.66 41.34 -26.32 40.68 -27 40 C-25.87972412 38.88757935 -25.87972412 38.88757935 -24.73681641 37.75268555 C-21.96490702 34.99888491 -19.19631549 32.24176904 -16.42871094 29.48364258 C-15.23072005 28.29067845 -14.03183291 27.09861366 -12.83203125 25.9074707 C-11.10700493 24.1945824 -9.38523424 22.47847916 -7.6640625 20.76171875 C-7.12754059 20.23035812 -6.59101868 19.6989975 -6.03823853 19.15153503 C-1.50989005 14.62387012 0.26378877 12.26617801 0.125 5.8125 C0.10695312 4.72582031 0.08890625 3.63914063 0.0703125 2.51953125 C0.04710937 1.68808594 0.02390625 0.85664063 0 0 Z " fill="#AFB7BE" transform="translate(142,29)"/>
<path d="M0 0 C3.84320897 2.18564174 6.59538366 4.48268871 7.75 8.8125 C7.8325 9.534375 7.915 10.25625 8 11 C8.99 11.33 9.98 11.66 11 12 C10.236875 12.433125 9.47375 12.86625 8.6875 13.3125 C6.03713747 14.83752358 6.03713747 14.83752358 4.3125 16.6875 C3 18 3 18 1 18 C0.29581558 19.31390507 -0.36502934 20.65128413 -1 22 C-4.49873964 26.78012517 -8.72232272 30.65339947 -13.265625 34.421875 C-15.22768174 36.0792468 -15.22768174 36.0792468 -17 39 C-20.0625 38.8125 -20.0625 38.8125 -23 38 C-23.33 37.34 -23.66 36.68 -24 36 C-25.175625 36.0928125 -25.175625 36.0928125 -26.375 36.1875 C-29 36 -29 36 -30.875 34 C-32.33168407 30.11550914 -32.13658859 26.92229072 -31 23 C-29.46914709 20.52891615 -27.5709238 18.58984535 -25.5 16.5625 C-24.96262207 16.01045898 -24.42524414 15.45841797 -23.87158203 14.88964844 C-22.26275584 13.24405181 -20.63258 11.62197884 -19 10 C-17.65035156 8.61361328 -17.65035156 8.61361328 -16.2734375 7.19921875 C-7.77241622 -1.48179158 -7.77241622 -1.48179158 0 0 Z " fill="#067E7D" transform="translate(106,97)"/>
<path d="M0 0 C3.36247175 2.51965707 6.14913219 5.48682373 9 8.5625 C9.77472656 9.36880859 10.54945312 10.17511719 11.34765625 11.00585938 C13.24863096 12.98897497 15.13131124 14.98651332 17 17 C16.38125 17.144375 15.7625 17.28875 15.125 17.4375 C12.96741678 17.93152225 12.96741678 17.93152225 11 19 C10 16 10 16 11 14 C10.0409375 14.2784375 10.0409375 14.2784375 9.0625 14.5625 C8.381875 14.706875 7.70125 14.85125 7 15 C6.505 14.505 6.505 14.505 6 14 C5.67 14.66 5.34 15.32 5 16 C1.27250499 17.74964052 -2.49949475 19.17988732 -6.375 20.5625 C-10.05577276 21.55605776 -10.05577276 21.55605776 -11 24 C-12.69770973 24.87633058 -14.43438445 25.67805318 -16.1875 26.4375 C-19.3507009 27.82422102 -22.43100581 29.22319944 -25.5 30.8125 C-28 32 -28 32 -31 32 C-30.67 32.66 -30.34 33.32 -30 34 C-29.01 34 -28.02 34 -27 34 C-27 35.32 -27 36.64 -27 38 C-25.03871245 38.8237956 -25.03871245 38.8237956 -23 39 C-23.33 39.66 -23.66 40.32 -24 41 C-23.01 41.33 -22.02 41.66 -21 42 C-21.33 43.32 -21.66 44.64 -22 46 C-33.85580034 35.48636574 -33.85580034 35.48636574 -34 28 C-32.13625438 19.8417173 -26.88545888 15.23657972 -21 9.5625 C-20.08476563 8.65306641 -19.16953125 7.74363281 -18.2265625 6.80664062 C-8.30060654 -2.93738799 -8.30060654 -2.93738799 0 0 Z " fill="#0195D3" transform="translate(69,60)"/>
<path d="M0 0 C2.9375 1.9375 2.9375 1.9375 5 4 C5 4.66 5 5.32 5 6 C5.66 6 6.32 6 7 6 C8.48046875 7.50390625 8.48046875 7.50390625 10.1875 9.5625 C13.60201725 13.58675247 17.21845349 17.32190005 21 21 C20.01 21.33 19.02 21.66 18 22 C17.01 21.34 16.02 20.68 15 20 C15 19.01 15 18.02 15 17 C13.35 17 11.7 17 10 17 C10 17.66 10 18.32 10 19 C7 18 7 18 5.8125 15.4375 C5.544375 14.633125 5.27625 13.82875 5 13 C5.66 13 6.32 13 7 13 C7 12.01 7 11.02 7 10 C5.02 10.66 3.04 11.32 1 12 C1 11.34 1 10.68 1 10 C0.401875 10.165 -0.19625 10.33 -0.8125 10.5 C-3 11 -3 11 -6 11 C-7.67739862 11.98189187 -9.34467377 12.98133771 -11 14 C-11.66 14 -12.32 14 -13 14 C-12.67 14.99 -12.34 15.98 -12 17 C-12.928125 17.020625 -13.85625 17.04125 -14.8125 17.0625 C-18.37804006 17.68873475 -18.37804006 17.68873475 -19.75 21.5 C-20.1625 22.655 -20.575 23.81 -21 25 C-21.66 25.33 -22.32 25.66 -23 26 C-22.67 26.66 -22.34 27.32 -22 28 C-23.98 28.33 -25.96 28.66 -28 29 C-28 30.65 -28 32.3 -28 34 C-29.65 33.67 -31.3 33.34 -33 33 C-33.36172602 24.7598231 -31.64480198 20.52401237 -25.70898438 14.83007812 C-24.87689453 14.08177734 -24.04480469 13.33347656 -23.1875 12.5625 C-22.36701172 11.78712891 -21.54652344 11.01175781 -20.70117188 10.21289062 C-19.17554653 8.77387824 -17.63981107 7.34544784 -16.09057617 5.93188477 C-14.65598529 4.60619077 -13.2666443 3.2303336 -11.91918945 1.81616211 C-8.13279948 -1.76696408 -4.81449618 -1.07911121 0 0 Z " fill="#375C7C" transform="translate(121,7)"/>
<path d="M0 0 C2.5 0.3125 2.5 0.3125 5 1 C5 1.99 5 2.98 5 4 C5.66 3.67 6.32 3.34 7 3 C7.495 4.98 7.495 4.98 8 7 C7.01 7.33 6.02 7.66 5 8 C5 8.99 5 9.98 5 11 C4.113125 10.896875 3.22625 10.79375 2.3125 10.6875 C-2.08528408 11.10238529 -3.07794119 12.78573531 -6 16 C-9.834814 18.77412077 -13.75637439 20.92333215 -18 23 C-18.845625 23.556875 -19.69125 24.11375 -20.5625 24.6875 C-23.29002434 26.15616695 -24.94991429 26.26143592 -28 26 C-28 26.66 -28 27.32 -28 28 C-28.66 28 -29.32 28 -30 28 C-30 27.34 -30 26.68 -30 26 C-30.99 25.67 -31.98 25.34 -33 25 C-33.33 24.01 -33.66 23.02 -34 22 C-34.99 21.67 -35.98 21.34 -37 21 C-37 20.34 -37 19.68 -37 19 C-35.05859375 17.81640625 -35.05859375 17.81640625 -32.4375 16.5625 C-31.07238281 15.90894531 -31.07238281 15.90894531 -29.6796875 15.2421875 C-28.79539062 14.83226563 -27.91109375 14.42234375 -27 14 C-26.30132812 13.67257813 -25.60265625 13.34515625 -24.8828125 13.0078125 C-22.06916705 11.73986069 -20.12235262 11 -17 11 C-16.67 10.01 -16.34 9.02 -16 8 C-13.890625 6.8671875 -13.890625 6.8671875 -11.25 5.875 C-10.38890625 5.54242188 -9.5278125 5.20984375 -8.640625 4.8671875 C-6 4 -6 4 -3.234375 3.5703125 C-2.12835938 3.28800781 -2.12835938 3.28800781 -1 3 C-0.67 2.01 -0.34 1.02 0 0 Z " fill="#0188C8" transform="translate(75,73)"/>
<path d="M0 0 C-0.763125 0.598125 -1.52625 1.19625 -2.3125 1.8125 C-4.91335259 3.84004112 -4.91335259 3.84004112 -6.6875 5.75 C-8 7 -8 7 -10 7 C-10.70418442 8.31390507 -11.36502934 9.65128413 -12 11 C-15.49873964 15.78012517 -19.72232272 19.65339947 -24.265625 23.421875 C-26.22768174 25.0792468 -26.22768174 25.0792468 -28 28 C-31.0625 27.8125 -31.0625 27.8125 -34 27 C-34.33 26.34 -34.66 25.68 -35 25 C-36.32 25 -37.64 25 -39 25 C-39.43843749 20.32333342 -38.43937942 16.00819965 -36 12 C-33.0625 10.6875 -33.0625 10.6875 -30 10 C-28.64886795 9.02418241 -27.31053056 8.02970259 -26 7 C-25.34 7 -24.68 7 -24 7 C-23.9175 6.195625 -23.835 5.39125 -23.75 4.5625 C-23.5025 3.716875 -23.255 2.87125 -23 2 C-20.125 1.0625 -20.125 1.0625 -17 1 C-16.01 1.66 -15.02 2.32 -14 3 C-12.1477633 4.00478037 -12.1477633 4.00478037 -10 4 C-4.34327156 -0.49637389 -4.34327156 -0.49637389 0 0 Z " fill="#037776" transform="translate(117,108)"/>
<path d="M0 0 C5.80517132 0.34148067 8.32050903 1.47948252 12 6 C13.92391552 8.62352116 13.99891935 9.94380641 14.0625 13.25 C12.57090673 18.51444684 9.80268131 21.16069575 6 25 C4.86540712 26.18313527 3.73133598 27.36677098 2.59765625 28.55078125 C1.35833838 29.82704488 0.11743744 31.10177306 -1.125 32.375 C-1.72272217 32.9944751 -2.32044434 33.6139502 -2.9362793 34.25219727 C-6.04713037 37.38463648 -8.5866959 39.90992146 -13 41 C-16.3125 40.625 -16.3125 40.625 -19 40 C-18.38125 39.938125 -17.7625 39.87625 -17.125 39.8125 C-14.74397155 39.17948312 -14.74397155 39.17948312 -13.8125 36.5625 C-13.544375 35.716875 -13.27625 34.87125 -13 34 C-12.67 33.34 -12.34 32.68 -12 32 C-11.34 32 -10.68 32 -10 32 C-10 31.01 -10 30.02 -10 29 C-9.34 29 -8.68 29 -8 29 C-7.30356015 27.01017187 -6.645124 25.00705243 -6 23 C-4.20015929 18.59650621 -2.31377803 15.07868023 1.1875 11.8125 C3.9976244 9.0023756 4.89169169 7.89909934 5 4 C3.74458443 1.48916886 2.49936512 1.12874554 0 0 Z " fill="#B6BDC5" transform="translate(144,39)"/>
<path d="M0 0 C0.495 1.485 0.495 1.485 1 3 C1.99 3.33 2.98 3.66 4 4 C4.1875 7.0625 4.1875 7.0625 4 10 C3.505 8.515 3.505 8.515 3 7 C2.34 7.99 1.68 8.98 1 10 C0.505 8.515 0.505 8.515 0 7 C-0.268125 7.99 -0.53625 8.98 -0.8125 10 C-1.204375 10.99 -1.59625 11.98 -2 13 C-2.99 13 -3.98 13 -5 13 C-5 13.66 -5 14.32 -5 15 C-5.66 15 -6.32 15 -7 15 C-7.33 15.99 -7.66 16.98 -8 18 C-8.66 17.67 -9.32 17.34 -10 17 C-9.938125 17.804375 -9.87625 18.60875 -9.8125 19.4375 C-9.874375 20.283125 -9.93625 21.12875 -10 22 C-10.99 22.33 -11.98 22.66 -13 23 C-13 23.66 -13 24.32 -13 25 C-13.99 25.33 -14.98 25.66 -16 26 C-16 26.66 -16 27.32 -16 28 C-18.9375 28.1875 -18.9375 28.1875 -22 28 C-22.33 27.01 -22.66 26.02 -23 25 C-25.54190002 24.7499227 -25.54190002 24.7499227 -28 25 C-28 23.68 -28 22.36 -28 21 C-29.98 20.67 -31.96 20.34 -34 20 C-33.34 19.67 -32.68 19.34 -32 19 C-32.33 18.01 -32.66 17.02 -33 16 C-29.17482487 13.60926555 -25.40334476 13.44033448 -21 13 C-21 12.34 -21 11.68 -21 11 C-18.8828125 9.9296875 -18.8828125 9.9296875 -16.125 8.875 C-15.22007813 8.52179688 -14.31515625 8.16859375 -13.3828125 7.8046875 C-11 7 -11 7 -9 7 C-8.773125 6.360625 -8.54625 5.72125 -8.3125 5.0625 C-7 3 -7 3 -3.375 2.25 C-1.704375 2.12625 -1.704375 2.12625 0 2 C0 1.34 0 0.68 0 0 Z " fill="#0275B5" transform="translate(84,87)"/>
<path d="M0 0 C0.78239629 2.54278793 0.97915522 4.24492622 0.75 6.9375 C0.67935748 10.20793922 0.67935748 10.20793922 3.4375 12.375 C6.94429622 15.96732784 6.83799422 18.05882373 7 23 C5.72485508 25.55028983 4.59658703 25.93081711 2 27 C1.01 27 0.02 27 -1 27 C-1 27.66 -1 28.32 -1 29 C-2.32 28.67 -3.64 28.34 -5 28 C-4.67 29.65 -4.34 31.3 -4 33 C-2.02 32.505 -2.02 32.505 0 32 C0 32.99 0 33.98 0 35 C0.99 35.33 1.98 35.66 3 36 C3.6875 38.5625 3.6875 38.5625 4 41 C5.98 40.505 5.98 40.505 8 40 C8 42.31 8 44.62 8 47 C3.15385339 43.05546206 -1.35532348 38.81098523 -5.8125 34.4375 C-6.38766357 33.88360596 -6.96282715 33.32971191 -7.55541992 32.7590332 C-11.71468931 28.63419384 -14.04631801 25.59380857 -13.9375 19.5 C-12.51775932 14.19963479 -9.44470546 11.96313697 -5 9 C-3.68 9 -2.36 9 -1 9 C-1.020625 7.88625 -1.04125 6.7725 -1.0625 5.625 C-1 2 -1 2 0 0 Z " fill="#029BAD" transform="translate(88,30)"/>
<path d="M0 0 C-0.52836758 3.82582601 -1.36482111 5.88684414 -3.98828125 8.7109375 C-4.93501709 9.73912598 -4.93501709 9.73912598 -5.90087891 10.78808594 C-6.59358887 11.51801758 -7.28629883 12.24794922 -8 13 C-8.72493652 13.77891602 -9.44987305 14.55783203 -10.19677734 15.36035156 C-12.49983714 17.80966082 -14.83846831 20.21980844 -17.1875 22.625 C-17.98091797 23.46417969 -18.77433594 24.30335937 -19.59179688 25.16796875 C-20.35943359 25.95042969 -21.12707031 26.73289062 -21.91796875 27.5390625 C-22.60656982 28.25271973 -23.2951709 28.96637695 -24.00463867 29.70166016 C-24.66310791 30.1301123 -25.32157715 30.55856445 -26 31 C-34.05620555 28.47270829 -40.70429058 18.24927767 -46 12 C-35.95505618 9.34831461 -35.95505618 9.34831461 -31 11 C-28 15.33333333 -28 15.33333333 -28 18 C-25.62694422 18.41780879 -25.62694422 18.41780879 -23 18 C-22.3503125 16.7934375 -22.3503125 16.7934375 -21.6875 15.5625 C-20 13 -20 13 -18.07421875 12.515625 C-16.05080957 12.32873818 -14.02544579 12.1633424 -12 12 C-11.67 11.34 -11.34 10.68 -11 10 C-10.34 10 -9.68 10 -9 10 C-9 9.01 -9 8.02 -9 7 C-8.34 7 -7.68 7 -7 7 C-7 6.34 -7 5.68 -7 5 C-7.66 4.67 -8.32 4.34 -9 4 C-3.375 0 -3.375 0 0 0 Z " fill="#174761" transform="translate(143,37)"/>
<path d="M0 0 C3.04894091 1.96815962 5.47569599 4.40817345 8 7 C8.60585937 7.57105469 9.21171875 8.14210938 9.8359375 8.73046875 C14 12.68926056 14 12.68926056 14 15 C14.66 15.33 15.32 15.66 16 16 C16.66 16.33 17.32 16.66 18 17 C18 17.66 18 18.32 18 19 C14.5625 18.25 14.5625 18.25 11 17 C10.25 14.9375 10.25 14.9375 10 13 C9.01 12.67 8.02 12.34 7 12 C7 11.34 7 10.68 7 10 C5.00572641 10.18553891 5.00572641 10.18553891 3 11 C2.87625 11.598125 2.7525 12.19625 2.625 12.8125 C1.63740413 16.26908554 -1.03571983 17.20908073 -4 19 C-4.33 19.33 -4.66 19.66 -5 20 C-7.125 20.5 -7.125 20.5 -10 20 C-12.62538322 17.92360996 -14.93245987 15.63358138 -17 13 C-17 12.34 -17 11.68 -17 11 C-17.99 11 -18.98 11 -20 11 C-20.6875 9 -20.6875 9 -21 7 C-20.41476563 7.23460938 -19.82953125 7.46921875 -19.2265625 7.7109375 C-16.91510612 8.27531953 -16.91510612 8.27531953 -15.1484375 6.6015625 C-14.56320313 5.94929688 -13.97796875 5.29703125 -13.375 4.625 C-9.39466665 0.26227654 -6.03479897 -1.29620682 0 0 Z " fill="#62C89E" transform="translate(134,97)"/>
<path d="M0 0 C3.6526151 3.05510339 6.84576588 6.43855943 10 10 C6.98968256 10.93423645 6.13349732 11.04449911 3 10 C3 8.68 3 7.36 3 6 C2.01 6 1.02 6 0 6 C-0.495 4.515 -0.495 4.515 -1 3 C-2.32 3 -3.64 3 -5 3 C-5 3.99 -5 4.98 -5 6 C-7.03651828 6.94098055 -9.08951642 7.46221026 -11.25 8.05859375 C-11.8275 8.36925781 -12.405 8.67992188 -13 9 C-13 10.32 -13 11.64 -13 13 C-13.99 13.33 -14.98 13.66 -16 14 C-16.66 14.66 -17.32 15.32 -18 16 C-18.680625 16.2475 -19.36125 16.495 -20.0625 16.75 C-20.701875 17.1625 -21.34125 17.575 -22 18 C-22.0825 19.010625 -22.165 20.02125 -22.25 21.0625 C-22.4975 22.031875 -22.745 23.00125 -23 24 C-25.73896216 24.91688072 -28.07097211 24.90701499 -31 25 C-31 27.31 -31 29.62 -31 32 C-29.02 32 -27.04 32 -25 32 C-25.391875 32.78375 -25.78375 33.5675 -26.1875 34.375 C-26.5896875 35.674375 -26.5896875 35.674375 -27 37 C-26.01 37.66 -25.02 38.32 -24 39 C-24.3125 41.125 -24.3125 41.125 -25 43 C-26.13125022 41.92319498 -27.25474919 40.83824365 -28.375 39.75 C-29.00148437 39.14671875 -29.62796875 38.5434375 -30.2734375 37.921875 C-33.95072704 33.82860248 -34.56696733 30.48068421 -34 25 C-30.61607488 18.79768245 -25.41634781 14.12152697 -20.4375 9.1875 C-19.57447266 8.31673828 -18.71144531 7.44597656 -17.82226562 6.54882812 C-16.99275391 5.72189453 -16.16324219 4.89496094 -15.30859375 4.04296875 C-14.17635376 2.91411255 -14.17635376 2.91411255 -13.02124023 1.76245117 C-9.12461614 -1.63526949 -4.68950481 -1.84761792 0 0 Z " fill="#1B3D5E" transform="translate(174,60)"/>
<path d="M0 0 C3.32376211 1.43676569 4.78599611 4.00814944 6.9609375 6.84765625 C5.92646484 7.64816406 5.92646484 7.64816406 4.87109375 8.46484375 C-0.22794567 12.50770354 -4.61414792 16.3435272 -8.7890625 21.34765625 C-11.57763795 24.54455882 -12.72155164 25.7312356 -16.7890625 27.22265625 C-20.68849109 26.77272218 -22.29471669 25.59200206 -25.0390625 22.84765625 C-24.0869904 21.84169328 -23.12718904 20.84304062 -22.1640625 19.84765625 C-21.63039063 19.29078125 -21.09671875 18.73390625 -20.546875 18.16015625 C-19.0390625 16.84765625 -19.0390625 16.84765625 -17.0390625 16.84765625 C-16.33591294 15.53319708 -15.67506484 14.19588592 -15.0390625 12.84765625 C-5.27406766 -0.39403954 -5.27406766 -0.39403954 0 0 Z " fill="#1C5A64" transform="translate(116.0390625,109.15234375)"/>
<path d="M0 0 C0.495 0.99 0.495 0.99 1 2 C0.24074219 1.96519531 -0.51851562 1.93039063 -1.30078125 1.89453125 C-2.29464844 1.86746094 -3.28851563 1.84039062 -4.3125 1.8125 C-5.29863281 1.77769531 -6.28476562 1.74289063 -7.30078125 1.70703125 C-10.37066918 2.04023182 -11.28099615 2.46859022 -13 5 C-12.979375 6.010625 -12.95875 7.02125 -12.9375 8.0625 C-12.958125 9.031875 -12.97875 10.00125 -13 11 C-15 12.375 -15 12.375 -17 13 C-15.35 13 -13.7 13 -12 13 C-12 13.66 -12 14.32 -12 15 C-14.63892176 16.78305524 -16.97178863 17.99059621 -20 19 C-20 19.66 -20 20.32 -20 21 C-20.99 21 -21.98 21 -23 21 C-23 21.66 -23 22.32 -23 23 C-26.96 23.495 -26.96 23.495 -31 24 C-30.67 27.3 -30.34 30.6 -30 34 C-29.01 34 -28.02 34 -27 34 C-27 35.32 -27 36.64 -27 38 C-25.03871245 38.8237956 -25.03871245 38.8237956 -23 39 C-23.33 39.66 -23.66 40.32 -24 41 C-23.01 41.33 -22.02 41.66 -21 42 C-21.33 43.32 -21.66 44.64 -22 46 C-33.85580034 35.48636574 -33.85580034 35.48636574 -34 28 C-32.13625438 19.8417173 -26.88545888 15.23657972 -21 9.5625 C-20.08476563 8.65306641 -19.16953125 7.74363281 -18.2265625 6.80664062 C-11.74347718 0.44238018 -9.0229753 -1.60085046 0 0 Z " fill="#069CD8" transform="translate(69,60)"/>
<path d="M0 0 C2.26559659 0.93411016 3.53897775 1.97363755 5.27392578 3.69750977 C5.85207031 4.27178711 6.43021484 4.84606445 7.02587891 5.43774414 C7.61691406 6.04038086 8.20794922 6.64301758 8.81689453 7.26391602 C9.42726562 7.86268555 10.03763672 8.46145508 10.66650391 9.07836914 C12.17725073 10.59933522 13.59974136 12.20695831 15.00439453 13.82641602 C14.67439453 14.48641602 14.34439453 15.14641602 14.00439453 15.82641602 C13.34439453 15.82641602 12.68439453 15.82641602 12.00439453 15.82641602 C12.00439453 15.16641602 12.00439453 14.50641602 12.00439453 13.82641602 C10.02439453 13.82641602 8.04439453 13.82641602 6.00439453 13.82641602 C6.33439453 12.50641602 6.66439453 11.18641602 7.00439453 9.82641602 C3.15875416 8.54453589 1.44943343 9.31034703 -2.22607422 10.72094727 C-4.38094916 11.78784106 -4.38094916 11.78784106 -4.87060547 15.07641602 C-5.24185547 15.98391602 -5.61310547 16.89141602 -5.99560547 17.82641602 C-9.42656478 18.06819503 -12.63769894 17.50790996 -15.99560547 16.82641602 C-15.72090297 11.35271445 -12.51146567 8.90151261 -8.68310547 5.45141602 C-8.10109375 4.89325195 -7.51908203 4.33508789 -6.91943359 3.76000977 C-2.57627074 -0.22409206 -2.57627074 -0.22409206 0 0 Z " fill="#405866" transform="translate(122.99560546875,116.173583984375)"/>
<path d="M0 0 C1.09766861 1.09766861 2.19240047 2.19834567 3.27734375 3.30859375 C4.62647717 4.63325309 6.02538108 5.90725718 7.44140625 7.16015625 C8.70791016 8.31837891 8.70791016 8.31837891 10 9.5 C11.2375 10.59828125 11.2375 10.59828125 12.5 11.71875 C12.995 12.4715625 13.49 13.224375 14 14 C12.92578125 16.578125 12.92578125 16.578125 11 19 C10.53980469 19.58265625 10.07960938 20.1653125 9.60546875 20.765625 C6.29391152 24.23226893 4.0266081 26 -1 26 C-3.875 25.375 -3.875 25.375 -6 24 C-6.66486635 20.29574461 -6.12335718 19.18503577 -4 16 C-3.34 16 -2.68 16 -2 16 C-2.33 17.32 -2.66 18.64 -3 20 C-2.34 20 -1.68 20 -1 20 C-0.835 19.34 -0.67 18.68 -0.5 18 C-0.335 17.34 -0.17 16.68 0 16 C0.66 16 1.32 16 2 16 C3.19760673 12.9515465 2.84852654 11.07732291 2 8 C1.33333333 5.33333333 0.66666667 2.66666667 0 0 Z " fill="#038894" transform="translate(102,54)"/>
<path d="M0 0 C3 2 3 2 4.6875 3.5625 C7.9802067 5.60931768 11.14616381 6.03861559 15 6 C16.67745682 5.36096883 18.34561387 4.69658363 20 4 C23.3125 4.375 23.3125 4.375 26 5 C24.37128019 6.7101558 22.81088835 8.13349058 20.875 9.5 C18.71499886 10.94958464 18.71499886 10.94958464 18 14 C14.4375 14.1875 14.4375 14.1875 11 14 C11.33 14.66 11.66 15.32 12 16 C12.99 15.67 13.98 15.34 15 15 C14.67 16.65 14.34 18.3 14 20 C14.99 20.33 15.98 20.66 17 21 C16.67 22.32 16.34 23.64 16 25 C14.18443212 23.21135158 12.37248378 21.41928379 10.5625 19.625 C10.04623047 19.11710937 9.52996094 18.60921875 8.99804688 18.0859375 C3.93642364 13.05739677 3.88867217 10.90232548 4 4 C2.88625 3.896875 1.7725 3.79375 0.625 3.6875 C-3 3 -3 3 -5 0 C-3 -1 -3 -1 0 0 Z " fill="#3A4D5C" transform="translate(83,133)"/>
<path d="M0 0 C1.06723961 3.46222615 1.10173486 6.64039266 1.0625 10.25 C1.05347656 11.32765625 1.04445313 12.4053125 1.03515625 13.515625 C1.02355469 14.33546875 1.01195313 15.1553125 1 16 C-0.32 16 -1.64 16 -3 16 C-3.680625 16.350625 -4.36125 16.70125 -5.0625 17.0625 C-7 18 -7 18 -10 17 C-10 17.66 -10 18.32 -10 19 C-10.66 19 -11.32 19 -12 19 C-11.81584568 21.94091587 -11.81584568 21.94091587 -11 25 C-9.0162233 26.28436734 -9.0162233 26.28436734 -7 27 C-7 27.66 -7 28.32 -7 29 C-6.34 29 -5.68 29 -5 29 C-4.375 31 -4.375 31 -4 33 C-2.02 32.505 -2.02 32.505 0 32 C0 32.99 0 33.98 0 35 C0.99 35.33 1.98 35.66 3 36 C3.6875 38.5625 3.6875 38.5625 4 41 C5.98 40.505 5.98 40.505 8 40 C8 42.31 8 44.62 8 47 C3.15385339 43.05546206 -1.35532348 38.81098523 -5.8125 34.4375 C-6.38766357 33.88360596 -6.96282715 33.32971191 -7.55541992 32.7590332 C-11.71468931 28.63419384 -14.04631801 25.59380857 -13.9375 19.5 C-12.51775932 14.19963479 -9.44470546 11.96313697 -5 9 C-3.68 9 -2.36 9 -1 9 C-1.020625 7.88625 -1.04125 6.7725 -1.0625 5.625 C-1 2 -1 2 0 0 Z " fill="#62BAC4" transform="translate(88,30)"/>
<path d="M0 0 C1.66666667 0 3.33333333 0 5 0 C5.8605957 1.73168945 5.8605957 1.73168945 6 4 C4.49291992 6.09057617 4.49291992 6.09057617 2.23046875 8.29296875 C1.42416016 9.08767578 0.61785156 9.88238281 -0.21289062 10.70117188 C-1.07076172 11.52166016 -1.92863281 12.34214844 -2.8125 13.1875 C-3.65876953 14.01958984 -4.50503906 14.85167969 -5.37695312 15.70898438 C-13.48651436 23.625 -13.48651436 23.625 -20.40625 23.625 C-25.87127723 22.30812597 -31.49401087 17.01197826 -34 12 C-32.66254029 12.22689049 -31.32986836 12.48217929 -30 12.75 C-29.2575 12.88921875 -28.515 13.0284375 -27.75 13.171875 C-26.88375 13.58179687 -26.88375 13.58179687 -26 14 C-26 15.32 -26 16.64 -26 18 C-24.35 17.67 -22.7 17.34 -21 17 C-20.67 17.99 -20.34 18.98 -20 20 C-16.97729478 20.74000384 -16.97729478 20.74000384 -14 21 C-14.33 20.01 -14.66 19.02 -15 18 C-13.68 18 -12.36 18 -11 18 C-11.33 16.68 -11.66 15.36 -12 14 C-10.68 14.33 -9.36 14.66 -8 15 C-8 13.35 -8 11.7 -8 10 C-7.34 10 -6.68 10 -6 10 C-5.67 9.34 -5.34 8.68 -5 8 C-4.34 8 -3.68 8 -3 8 C-3 7.34 -3 6.68 -3 6 C-2.01 6 -1.02 6 0 6 C0 4.02 0 2.04 0 0 Z " fill="#4997C1" transform="translate(82,94)"/>
<path d="M0 0 C2.6683716 2.31024804 2.97731311 2.68805529 3.25 6.4375 C2.87234043 11.81914894 2.87234043 11.81914894 2 14 C1.34 14 0.68 14 0 14 C-0.2475 14.680625 -0.495 15.36125 -0.75 16.0625 C-2.18400016 19.43240037 -4.07215959 21.51648917 -6.5625 24.15625 C-8.24563541 26.31505412 -8.98759009 28.46320103 -10 31 C-11.62109375 33.38671875 -11.62109375 33.38671875 -13.4375 35.6875 C-14.03433594 36.45449219 -14.63117188 37.22148438 -15.24609375 38.01171875 C-17 40 -17 40 -20 42 C-22.125 41.8125 -22.125 41.8125 -24 41 C-24.495 39.515 -24.495 39.515 -25 38 C-23.44008924 36.09238778 -21.9109938 34.4714663 -20.13671875 32.78125 C-19.62953812 32.28210083 -19.12235748 31.78295166 -18.59980774 31.26867676 C-16.97150666 29.66945555 -15.33021608 28.08439906 -13.6875 26.5 C-12.05810163 24.91314529 -10.43153051 23.32349451 -8.80732727 21.73132324 C-7.79478728 20.74042491 -6.77877844 19.75305598 -5.75895691 18.76965332 C-1.29231518 14.42814296 0.25972167 12.07705753 0.125 5.8125 C0.10695312 4.72582031 0.08890625 3.63914063 0.0703125 2.51953125 C0.04710937 1.68808594 0.02390625 0.85664063 0 0 Z " fill="#758492" transform="translate(142,29)"/>
<path d="M0 0 C5.80517132 0.34148067 8.32050903 1.47948252 12 6 C13.92391552 8.62352116 13.99891935 9.94380641 14.0625 13.25 C12.57090673 18.51444684 9.80268131 21.16069575 6 25 C4.86540712 26.18313527 3.73133598 27.36677098 2.59765625 28.55078125 C1.35833838 29.82704488 0.11743744 31.10177306 -1.125 32.375 C-1.72272217 32.9944751 -2.32044434 33.6139502 -2.9362793 34.25219727 C-6.04713037 37.38463648 -8.5866959 39.90992146 -13 41 C-16.3125 40.625 -16.3125 40.625 -19 40 C-18.38125 39.938125 -17.7625 39.87625 -17.125 39.8125 C-14.74397155 39.17948312 -14.74397155 39.17948312 -13.8125 36.5625 C-13.544375 35.716875 -13.27625 34.87125 -13 34 C-12.67 33.34 -12.34 32.68 -12 32 C-11.34 32 -10.68 32 -10 32 C-10.33 33.32 -10.66 34.64 -11 36 C-10.566875 35.505 -10.13375 35.01 -9.6875 34.5 C-8 33 -8 33 -5 33 C-4.87625 32.360625 -4.7525 31.72125 -4.625 31.0625 C-4.41875 30.381875 -4.2125 29.70125 -4 29 C-3.175 28.855625 -2.35 28.71125 -1.5 28.5625 C-0.675 28.376875 0.15 28.19125 1 28 C1.36442233 26.33985384 1.69972883 24.67293936 2 23 C3.32 23 4.64 23 6 23 C6.69159401 21.15274948 6.69159401 21.15274948 7 19 C7.66 18.01 8.32 17.02 9 16 C9.66 16 10.32 16 11 16 C11.04125 14.700625 11.0825 13.40125 11.125 12.0625 C11.14820313 11.33160156 11.17140625 10.60070312 11.1953125 9.84765625 C11.09863281 8.93306641 11.09863281 8.93306641 11 8 C10.34 7.67 9.68 7.34 9 7 C8.67 7.66 8.34 8.32 8 9 C7.79375 8.05125 7.5875 7.1025 7.375 6.125 C6.29711753 2.70327629 6.29711753 2.70327629 2.875 1.6875 C1.92625 1.460625 0.9775 1.23375 0 1 C0 0.67 0 0.34 0 0 Z " fill="#BFC5CB" transform="translate(144,39)"/>
<path d="M0 0 C0.66 0 1.32 0 2 0 C1.45865928 3.89765319 0.39582337 5.93334609 -2 9 C-2.40798828 10.0828125 -2.40798828 10.0828125 -2.82421875 11.1875 C-4.29850979 14.71404335 -6.29139446 17.81330918 -8.375 21 C-8.76171875 21.60328125 -9.1484375 22.2065625 -9.546875 22.828125 C-11.84604325 26.37717665 -14.18228209 29.8345637 -17 33 C-17.66 33 -18.32 33 -19 33 C-19 33.66 -19 34.32 -19 35 C-23.43090471 33.79157144 -25.98112756 32.48331435 -29 29 C-28.01 28.67 -27.02 28.34 -26 28 C-25.67 28.66 -25.34 29.32 -25 30 C-19.88561882 29.81734353 -17.02055366 25.1406188 -13.875 21.625 C-11.84981316 19.00365499 -11.84981316 19.00365499 -10.625 15.625 C-8.94643369 11.88050591 -7.04971559 9.46449182 -4.3046875 6.48046875 C-2.90068171 5.01456666 -2.90068171 5.01456666 -2 3 C-1.34 3 -0.68 3 0 3 C0 2.01 0 1.02 0 0 Z " fill="#9CA6AE" transform="translate(144,40)"/>
<path d="M0 0 C-0.52906595 3.75507781 -1.30923743 5.83826266 -3.875 8.625 C-4.49246094 9.29789063 -5.10992187 9.97078125 -5.74609375 10.6640625 C-10.09896712 15.17535933 -14.53112126 19.60385165 -19 24 C-20.98 22.35 -22.96 20.7 -25 19 C-24.01 18.34 -23.02 17.68 -22 17 C-21.773125 16.319375 -21.54625 15.63875 -21.3125 14.9375 C-20 13 -20 13 -18.1328125 12.58984375 C-16.088873 12.38981408 -14.04445313 12.19470982 -12 12 C-11.67 11.34 -11.34 10.68 -11 10 C-10.34 10 -9.68 10 -9 10 C-9 9.01 -9 8.02 -9 7 C-8.34 7 -7.68 7 -7 7 C-7 6.34 -7 5.68 -7 5 C-7.66 4.67 -8.32 4.34 -9 4 C-3.375 0 -3.375 0 0 0 Z " fill="#294763" transform="translate(143,37)"/>
<path d="M0 0 C3.6526151 3.05510339 6.84576588 6.43855943 10 10 C6.98968256 10.93423645 6.13349732 11.04449911 3 10 C3 8.68 3 7.36 3 6 C2.01 6 1.02 6 0 6 C-0.33 5.01 -0.66 4.02 -1 3 C-2.32 3 -3.64 3 -5 3 C-5 3.99 -5 4.98 -5 6 C-7.9948134 6.91933807 -10.99999393 7.40860106 -14.08203125 7.9609375 C-17.73325547 9.2611057 -18.2735628 10.62982917 -20 14 C-23.0625 16.375 -23.0625 16.375 -26 18 C-26.66 17.67 -27.32 17.34 -28 17 C-25.23733252 14.17937758 -22.46353947 11.36995786 -19.6875 8.5625 C-18.90181641 7.76005859 -18.11613281 6.95761719 -17.30664062 6.13085938 C-16.54931641 5.36708984 -15.79199219 4.60332031 -15.01171875 3.81640625 C-14.31522217 3.10943604 -13.61872559 2.40246582 -12.90112305 1.67407227 C-9.07637925 -1.69388307 -4.59499806 -1.81038321 0 0 Z " fill="#244664" transform="translate(174,60)"/>
<path d="M0 0 C0.66 0.33 1.32 0.66 2 1 C1.34 1.66 0.68 2.32 0 3 C-0.433125 4.299375 -0.433125 4.299375 -0.875 5.625 C-1.24625 6.40875 -1.6175 7.1925 -2 8 C-3.32 8 -4.64 8 -6 8 C-6 8.99 -6 9.98 -6 11 C-6.99 11 -7.98 11 -9 11 C-9 11.99 -9 12.98 -9 14 C-9.66 14 -10.32 14 -11 14 C-11.165 14.66 -11.33 15.32 -11.5 16 C-11.665 16.66 -11.83 17.32 -12 18 C-12.66 18 -13.32 18 -14 18 C-13.79375 18.639375 -13.5875 19.27875 -13.375 19.9375 C-13.25125 20.618125 -13.1275 21.29875 -13 22 C-13.66 22.33 -14.32 22.66 -15 23 C-15.91485573 25.80478195 -15.91485573 25.80478195 -16.625 29.0625 C-16.88539062 30.16722656 -17.14578125 31.27195313 -17.4140625 32.41015625 C-17.60742188 33.26480469 -17.80078125 34.11945313 -18 35 C-21.41717539 31.95224898 -21.84129727 29.6023792 -22 25 C-17.2528176 15.67036393 -7.93901266 6.67837549 0 0 Z " fill="#32918F" transform="translate(96,98)"/>
<path d="M0 0 C2.04119788 1.61594832 4.04072937 3.2856382 6 5 C7.11375 5.37125 8.2275 5.7425 9.375 6.125 C10.24125 6.41375 11.1075 6.7025 12 7 C12 7.99 12 8.98 12 10 C12.66 10.33 13.32 10.66 14 11 C13.67 11.66 13.34 12.32 13 13 C13.66 13 14.32 13 15 13 C15 13.66 15 14.32 15 15 C14.01 15 13.02 15 12 15 C9 10.77777778 9 10.77777778 9 8 C4.41220523 7.82548903 4.41220523 7.82548903 -0.0625 8.625 C-3.17943207 9.22827717 -5.15668403 8.30318649 -8 7 C-10.375 4.375 -10.375 4.375 -12 2 C-11.38125 1.855625 -10.7625 1.71125 -10.125 1.5625 C-2.94047619 -0.33928571 -2.94047619 -0.33928571 0 0 Z " fill="#1F4F6B" transform="translate(103,40)"/>
<path d="M0 0 C0.66 0.99 1.32 1.98 2 3 C1.12109375 4.5859375 1.12109375 4.5859375 -0.5625 6.375 C-1.20703125 7.06207031 -1.8515625 7.74914062 -2.515625 8.45703125 C-3.74539062 9.71580078 -3.74539062 9.71580078 -5 11 C-5.52271484 11.5470459 -6.04542969 12.0940918 -6.58398438 12.65771484 C-8.31643945 14.46968112 -10.0619117 16.26805613 -11.8125 18.0625 C-12.38750244 18.6591748 -12.96250488 19.25584961 -13.55493164 19.87060547 C-14.97959831 21.30600924 -16.48365962 22.6618031 -18 24 C-18.66 23.67 -19.32 23.34 -20 23 C-19.23821384 19.87853476 -18.43828541 16.88218912 -17 14 C-14.3125 13.4375 -14.3125 13.4375 -12 14 C-12 13.01 -12 12.02 -12 11 C-12.66 10.67 -13.32 10.34 -14 10 C-12.71086513 9.32845067 -11.41859796 8.66291141 -10.125 8 C-9.40570313 7.62875 -8.68640625 7.2575 -7.9453125 6.875 C-6 6 -6 6 -4 6 C-3.855625 5.34 -3.71125 4.68 -3.5625 4 C-3.376875 3.34 -3.19125 2.68 -3 2 C-2.01 2 -1.02 2 0 2 C0 1.34 0 0.68 0 0 Z " fill="#41576E" transform="translate(193,92)"/>
<path d="M0 0 C0 0.66 0 1.32 0 2 C-2.63892176 3.78305524 -4.97178863 4.99059621 -8 6 C-8 6.66 -8 7.32 -8 8 C-8.99 8 -9.98 8 -11 8 C-11 8.66 -11 9.32 -11 10 C-13.64 10.33 -16.28 10.66 -19 11 C-18.67 14.3 -18.34 17.6 -18 21 C-17.01 21 -16.02 21 -15 21 C-15 22.32 -15 23.64 -15 25 C-13.03871245 25.8237956 -13.03871245 25.8237956 -11 26 C-11.33 26.66 -11.66 27.32 -12 28 C-11.01 28.33 -10.02 28.66 -9 29 C-9.33 30.32 -9.66 31.64 -10 33 C-15.85923599 27.80407375 -21.07129064 23.1147883 -22 15 C-21.5 11.5 -21.5 11.5 -20 9 C-17.375 8.25 -17.375 8.25 -15 8 C-15 7.34 -15 6.68 -15 6 C-13.02 6 -11.04 6 -9 6 C-9 5.01 -9 4.02 -9 3 C-5.80825874 1.08495525 -3.7511217 0 0 0 Z " fill="#089AD5" transform="translate(57,73)"/>
<path d="M0 0 C2 0.875 2 0.875 4 2 C4 2.66 4 3.32 4 4 C4.66 4 5.32 4 6 4 C7.48046875 5.50390625 7.48046875 5.50390625 9.1875 7.5625 C12.60201725 11.58675247 16.21845349 15.32190005 20 19 C19.01 19.33 18.02 19.66 17 20 C16.01 19.34 15.02 18.68 14 18 C14 17.01 14 16.02 14 15 C12.35 15 10.7 15 9 15 C9 15.66 9 16.32 9 17 C6 16 6 16 4.8125 13.4375 C4.544375 12.633125 4.27625 11.82875 4 11 C4.66 11 5.32 11 6 11 C6 10.01 6 9.02 6 8 C4.02 8.66 2.04 9.32 0 10 C-0.33 9.01 -0.66 8.02 -1 7 C-0.01 7 0.98 7 2 7 C1.34 6.01 0.68 5.02 0 4 C0 2.68 0 1.36 0 0 Z " fill="#3B5C7A" transform="translate(122,9)"/>
<path d="M0 0 C3.80162287 1.0726268 6.36543362 3.77100999 9.03515625 6.57421875 C6.03515625 7.57421875 6.03515625 7.57421875 2.03515625 7.57421875 C2.03515625 6.91421875 2.03515625 6.25421875 2.03515625 5.57421875 C-1.39714823 5.83815376 -1.39714823 5.83815376 -4.96484375 6.57421875 C-5.95484375 8.05921875 -5.95484375 8.05921875 -6.96484375 9.57421875 C-9.58984375 9.26171875 -9.58984375 9.26171875 -11.96484375 8.57421875 C-11.96484375 9.23421875 -11.96484375 9.89421875 -11.96484375 10.57421875 C-13.61484375 10.57421875 -15.26484375 10.57421875 -16.96484375 10.57421875 C-15.3196079 8.88059361 -13.65391199 7.22317719 -11.96484375 5.57421875 C-11.03671875 4.64609375 -10.10859375 3.71796875 -9.15234375 2.76171875 C-5.94431912 0.56013322 -3.91341337 -0.21866857 0 0 Z " fill="#6BCDA6" transform="translate(131.96484375,96.42578125)"/>
<path d="M0 0 C4.22636589 -0.89068041 8.11157174 -0.40719628 12 1.375 C14 3 14 3 15 5 C13.35 5.33 11.7 5.66 10 6 C10 5.34 10 4.68 10 4 C8.37007308 4.39695637 6.74607765 4.81832493 5.125 5.25 C4.22007813 5.48203125 3.31515625 5.7140625 2.3828125 5.953125 C-0.50907998 7.22366137 -0.78725278 8.18118213 -2 11 C-2.99 11.66 -3.98 12.32 -5 13 C-5.99 12.67 -6.98 12.34 -8 12 C-6 10 -6 10 -3 10 C-3.33 8.02 -3.66 6.04 -4 4 C-3.01 3.67 -2.02 3.34 -1 3 C-0.67 2.01 -0.34 1.02 0 0 Z " fill="#029FDB" transform="translate(59,61)"/>
<path d="M0 0 C3.625 -0.3125 3.625 -0.3125 7 0 C7 0.66 7 1.32 7 2 C7.66 2.33 8.32 2.66 9 3 C6.12097898 7.03906612 4.14341371 9.63178203 -0.6875 11.1875 C-4 11 -4 11 -5.9375 9.0625 C-6.288125 8.381875 -6.63875 7.70125 -7 7 C-5 5 -5 5 -2 5 C-1.7525 4.175 -1.505 3.35 -1.25 2.5 C-0.8375 1.675 -0.425 0.85 0 0 Z " fill="#1E4F5C" transform="translate(100,125)"/>
<path d="M0 0 C0.33 0.99 0.66 1.98 1 3 C-0.33935547 4.80932617 -0.33935547 4.80932617 -2.3671875 6.79296875 C-3.08777344 7.50517578 -3.80835938 8.21738281 -4.55078125 8.95117188 C-5.31777344 9.68916016 -6.08476562 10.42714844 -6.875 11.1875 C-7.63425781 11.93708984 -8.39351562 12.68667969 -9.17578125 13.45898438 C-14.8327599 19 -14.8327599 19 -16 19 C-16.33 17.02 -16.66 15.04 -17 13 C-16.01 13 -15.02 13 -14 13 C-13.71125 12.236875 -13.4225 11.47375 -13.125 10.6875 C-11.70934091 7.30564773 -10.10978024 6.78812364 -7 5 C-5.80767387 2.94996045 -5.80767387 2.94996045 -5 1 C-3 0 -3 0 0 0 Z " fill="#4E5D6B" transform="translate(139,148)"/>
<path d="M0 0 C4.50393077 0.1312621 6.3857636 1.9978295 9.1875 5.5 C3.4375 6.625 3.4375 6.625 1.1875 5.5 C0.754375 6.7375 0.754375 6.7375 0.3125 8 C-0.244375 9.2375 -0.244375 9.2375 -0.8125 10.5 C-1.4725 10.5 -2.1325 10.5 -2.8125 10.5 C-2.8125 9.84 -2.8125 9.18 -2.8125 8.5 C-3.8025 9.16 -4.7925 9.82 -5.8125 10.5 C-6.8025 10.17 -7.7925 9.84 -8.8125 9.5 C-4.45360549 0.58407941 -4.45360549 0.58407941 0 0 Z " fill="#088182" transform="translate(101.8125,96.5)"/>
<path d="M0 0 C0.33 0.66 0.66 1.32 1 2 C0.28972656 1.94199219 -0.42054687 1.88398438 -1.15234375 1.82421875 C-3.84266903 1.6921551 -6.33239762 1.61106998 -9 2 C-9.99077298 4.45286596 -9.99077298 4.45286596 -10 7 C-11.32 7 -12.64 7 -14 7 C-14.33 7.99 -14.66 8.98 -15 10 C-15.66 10 -16.32 10 -17 10 C-17.1546875 10.928125 -17.1546875 10.928125 -17.3125 11.875 C-18 14 -18 14 -20.5625 15.125 C-21.366875 15.41375 -22.17125 15.7025 -23 16 C-23 16.66 -23 17.32 -23 18 C-24.25 19.6875 -24.25 19.6875 -26 21 C-28.109375 20.58203125 -28.109375 20.58203125 -30 20 C-24.66666667 14.66666667 -19.33333333 9.33333333 -14 4 C-13.32163086 3.28038086 -12.64326172 2.56076172 -11.94433594 1.81933594 C-8.1286591 -1.7510337 -4.84156763 -0.98624526 0 0 Z " fill="#4F6D88" transform="translate(121,7)"/>
<path d="M0 0 C3 2 3 2 3.875 4.6875 C4.03644064 8.96567694 3.12752052 11.29399651 1 15 C-2.69367817 18.064967 -4.14958908 19 -9 19 C-9 21.64 -9 24.28 -9 27 C-9.33 27 -9.66 27 -10 27 C-10.1080023 24.89695523 -10.18558987 22.79233091 -10.25 20.6875 C-10.31960937 18.92986328 -10.31960937 18.92986328 -10.390625 17.13671875 C-10 14 -10 14 -8.1171875 12.06640625 C-5.54048256 10.76854564 -4.63265046 10.94693982 -2 12 C-1.34 12.33 -0.68 12.66 0 13 C0 11.35 0 9.7 0 8 C0.33 8 0.66 8 1 8 C1.08226668 4.95613276 0.97608217 2.92824652 0 0 Z " fill="#79C5A5" transform="translate(154,118)"/>
<path d="M0 0 C2 0.375 2 0.375 4 1 C4 1.66 4 2.32 4 3 C4.66 3.12375 5.32 3.2475 6 3.375 C6.66 3.58125 7.32 3.7875 8 4 C8 5.32 8 6.64 8 8 C9.99726919 9.15297897 9.99726919 9.15297897 12.5 9.75 C13.3353125 9.99234375 14.170625 10.2346875 15.03125 10.484375 C15.6809375 10.65453125 16.330625 10.8246875 17 11 C14.47064411 12.26467795 13.65809097 11.7249339 11 11 C10.01 11 9.02 11 8 11 C7.319375 10.2884375 7.319375 10.2884375 6.625 9.5625 C4.41902559 7.44137076 3.05660816 7 0 7 C-0.639375 7.804375 -1.27875 8.60875 -1.9375 9.4375 C-4 12 -4 12 -7.25 12.3125 C-8.1575 12.209375 -9.065 12.10625 -10 12 C-5.45454545 7.2020202 -5.45454545 7.2020202 -2.75 6 C-0.69722976 5.09725562 -0.69722976 5.09725562 -0.25 2.375 C-0.1675 1.59125 -0.085 0.8075 0 0 Z " fill="#5DC497" transform="translate(137,106)"/>
<path d="M0 0 C1.06723961 3.46222615 1.10173486 6.64039266 1.0625 10.25 C1.05347656 11.32765625 1.04445313 12.4053125 1.03515625 13.515625 C1.02355469 14.33546875 1.01195313 15.1553125 1 16 C-0.32 16 -1.64 16 -3 16 C-3.680625 16.350625 -4.36125 16.70125 -5.0625 17.0625 C-7 18 -7 18 -10 17 C-10 17.66 -10 18.32 -10 19 C-10.66 19 -11.32 19 -12 19 C-11.8083016 14.78263515 -11.48379591 13.40853877 -8.1875 10.625 C-5 9 -5 9 -1 9 C-1.020625 7.88625 -1.04125 6.7725 -1.0625 5.625 C-1 2 -1 2 0 0 Z " fill="#16A6BB" transform="translate(88,30)"/>
<path d="M0 0 C2.31 0 4.62 0 7 0 C7 0.66 7 1.32 7 2 C8.134375 1.814375 9.26875 1.62875 10.4375 1.4375 C12.2009375 1.2209375 12.2009375 1.2209375 14 1 C15.6759059 2.6759059 15.05780805 4.74548602 15 7 C14.67 6.34 14.34 5.68 14 5 C13.01 5 12.02 5 11 5 C11 6.32 11 7.64 11 9 C8.6568787 8.74438677 6.32156597 8.40729228 4 8 C3.67 7.34 3.34 6.68 3 6 C2.01 5.67 1.02 5.34 0 5 C0 3.33333333 0 1.66666667 0 0 Z " fill="#2B3C4E" transform="translate(108,160)"/>
<path d="M0 0 C0 3 0 3 -1 6 C-0.34 6.33 0.32 6.66 1 7 C0.01 7 -0.98 7 -2 7 C-2 9.31 -2 11.62 -2 14 C-0.02 14 1.96 14 4 14 C3.608125 14.78375 3.21625 15.5675 2.8125 16.375 C2.4103125 17.674375 2.4103125 17.674375 2 19 C2.99 19.66 3.98 20.32 5 21 C4.6875 23.125 4.6875 23.125 4 25 C2.86874978 23.92319498 1.74525081 22.83824365 0.625 21.75 C-0.00148437 21.14671875 -0.62796875 20.5434375 -1.2734375 19.921875 C-4.95072704 15.82860248 -5.56696733 12.48068421 -5 7 C-3.50254139 4.39152371 -2.12971098 2.12971098 0 0 Z " fill="#597085" transform="translate(145,78)"/>
<path d="M0 0 C-0.61553566 2.93020621 -1.28716507 5.51779332 -3 8 C-5.87615875 8.62346181 -8.31429409 8.15753355 -11 7 C-13 4 -13 4 -13 1 C-11.7934375 1.309375 -11.7934375 1.309375 -10.5625 1.625 C-9.2940625 1.810625 -9.2940625 1.810625 -8 2 C-7.67 1.34 -7.34 0.68 -7 0 C-3.86650268 -1.04449911 -3.01031744 -0.93423645 0 0 Z " fill="#102C4A" transform="translate(176,108)"/>
<path d="M0 0 C0.99 0.33 1.98 0.66 3 1 C3.29296875 3.06640625 3.29296875 3.06640625 3.1875 5.5625 C3.16042969 6.38878906 3.13335937 7.21507812 3.10546875 8.06640625 C3.07066406 8.70449219 3.03585938 9.34257812 3 10 C1.02 9.34 -0.96 8.68 -3 8 C-2.34 7.01 -1.68 6.02 -1 5 C-0.61500109 3.34450469 -0.27206865 1.6777567 0 0 Z M-16 6 C-13.03 6.495 -13.03 6.495 -10 7 C-10 7.99 -10 8.98 -10 10 C-8.35 10 -6.7 10 -5 10 C-5.99 10.495 -5.99 10.495 -7 11 C-6.67 11.99 -6.34 12.98 -6 14 C-6.66 14.66 -7.32 15.32 -8 16 C-9.14842923 14.71064081 -10.29366227 13.41843421 -11.4375 12.125 C-12.07558594 11.40570313 -12.71367187 10.68640625 -13.37109375 9.9453125 C-15 8 -15 8 -16 6 Z " fill="#4EBC8B" transform="translate(151,121)"/>
<path d="M0 0 C3.6526151 3.05510339 6.84576588 6.43855943 10 10 C6.98968256 10.93423645 6.13349732 11.04449911 3 10 C3 8.68 3 7.36 3 6 C2.01 6 1.02 6 0 6 C-0.33 5.01 -0.66 4.02 -1 3 C-2.97457822 2.33457904 -2.97457822 2.33457904 -5.3125 2.1875 C-6.48232422 2.05408203 -6.48232422 2.05408203 -7.67578125 1.91796875 C-10.28338183 2.01000171 -11.77553399 2.68160939 -14 4 C-10.44635462 -1.24585747 -5.94755748 -2.34327807 0 0 Z " fill="#77899A" transform="translate(174,60)"/>
<path d="M0 0 C0.66 0.33 1.32 0.66 2 1 C1.34 1.66 0.68 2.32 0 3 C-0.433125 4.299375 -0.433125 4.299375 -0.875 5.625 C-1.24625 6.40875 -1.6175 7.1925 -2 8 C-3.32 8 -4.64 8 -6 8 C-6 8.99 -6 9.98 -6 11 C-6.99 11 -7.98 11 -9 11 C-9 11.99 -9 12.98 -9 14 C-9.66 14 -10.32 14 -11 14 C-11.0825 14.61875 -11.165 15.2375 -11.25 15.875 C-12 18 -12 18 -15.0625 19.25 C-16.031875 19.4975 -17.00125 19.745 -18 20 C-15.37257818 14.86503872 -11.48011356 11.1484905 -7.4375 7.125 C-6.75236328 6.42375 -6.06722656 5.7225 -5.36132812 5 C-4.70455078 4.34257813 -4.04777344 3.68515625 -3.37109375 3.0078125 C-2.77224365 2.40598145 -2.17339355 1.80415039 -1.55639648 1.18408203 C-1.04278564 0.79333496 -0.5291748 0.40258789 0 0 Z " fill="#6FB1AF" transform="translate(96,98)"/>
<path d="M0 0 C5.04696249 4.9175532 6.4860954 6.83009283 6 14 C4.5625 16.9375 4.5625 16.9375 3 19 C2.67 19 2.34 19 2 19 C1.80398392 17.25093341 1.61852597 15.50068154 1.4375 13.75 C1.33308594 12.77546875 1.22867188 11.8009375 1.12109375 10.796875 C1.01025532 8.2368648 1.22261908 6.41851841 2 4 C1.01 4.33 0.02 4.66 -1 5 C-0.67 3.35 -0.34 1.7 0 0 Z " fill="#278DC0" transform="translate(86,78)"/>
<path d="M0 0 C0.66 0 1.32 0 2 0 C1.65234651 4.05595734 0.4825284 5.66614475 -2.4765625 8.3515625 C-4.50239541 10.54361759 -5.93938294 12.95803421 -7.5 15.5 C-10.01096446 19.57138876 -12.41422936 22.84886823 -16 26 C-14.92598892 23.08482708 -14.22189824 21.22189824 -12 19 C-11.38125 17.4221875 -11.38125 17.4221875 -10.75 15.8125 C-9.23356511 12.0761295 -7.01735878 9.42931787 -4.3046875 6.48046875 C-2.90068171 5.01456666 -2.90068171 5.01456666 -2 3 C-1.34 3 -0.68 3 0 3 C0 2.01 0 1.02 0 0 Z " fill="#909AA2" transform="translate(144,40)"/>
<path d="M0 0 C1.32 0.99 2.64 1.98 4 3 C-2.79976466 10.57638753 -2.79976466 10.57638753 -7.1875 12.125 C-10.21489611 11.99044906 -12.29972449 11.35013776 -15 10 C-11.61981469 8.95994298 -8.5219721 8.91995518 -5 9 C-5.33 8.01 -5.66 7.02 -6 6 C-5.34 6 -4.68 6 -4 6 C-4 5.34 -4 4.68 -4 4 C-2.70766393 2.62689293 -1.37562854 1.28965176 0 0 Z " fill="#3B9BA4" transform="translate(111,68)"/>
<path d="M0 0 C4.75 0.625 4.75 0.625 7 4 C7.99 4 8.98 4 10 4 C10.99 5.485 10.99 5.485 12 7 C10.25 8.6875 10.25 8.6875 8 10 C5.875 8.625 5.875 8.625 4 7 C3.01 7.495 3.01 7.495 2 8 C1.87625 7.360625 1.7525 6.72125 1.625 6.0625 C1.21318657 3.80397103 1.21318657 3.80397103 -1 3 C-0.67 2.01 -0.34 1.02 0 0 Z " fill="#2F4253" transform="translate(98,150)"/>
<path d="M0 0 C0.33 0 0.66 0 1 0 C1.50960681 2.59436193 1.90540615 5.19902209 2.3046875 7.8125 C2.53414062 8.534375 2.76359375 9.25625 3 10 C3.99 10 4.98 10 6 10 C6 11.32 6 12.64 6 14 C7.96128755 14.8237956 7.96128755 14.8237956 10 15 C9.67 15.66 9.34 16.32 9 17 C9.99 17.33 10.98 17.66 12 18 C11.67 19.32 11.34 20.64 11 22 C5.1660524 16.8264993 -0.04140654 12.08619964 -1 4 C-0.6171875 1.73828125 -0.6171875 1.73828125 0 0 Z " fill="#63B0D5" transform="translate(36,84)"/>
<path d="M0 0 C0 6.26220168 -6.56570075 12.03246909 -11 16 C-13.3125 17.3125 -13.3125 17.3125 -15 18 C-15 14.28931816 -14.29899522 13.94152034 -11.71875 11.42578125 C-11.04199219 10.75869141 -10.36523438 10.09160156 -9.66796875 9.40429688 C-8.95253906 8.71400391 -8.23710938 8.02371094 -7.5 7.3125 C-6.42685547 6.2596582 -6.42685547 6.2596582 -5.33203125 5.18554688 C-3.56120423 3.45013639 -1.78376544 1.7220927 0 0 Z " fill="#697683" transform="translate(133,51)"/>
<path d="M0 0 C0.99 0.66 1.98 1.32 3 2 C3.66 2.33 4.32 2.66 5 3 C5.5625 4.7421875 5.5625 4.7421875 6 6.875 C6.63611239 9.95332961 7.1789302 11.2683953 9 14 C8.67 14.99 8.34 15.98 8 17 C3.62340682 12.62340682 3.60080787 9.88808394 4 4 C2.88625 3.896875 1.7725 3.79375 0.625 3.6875 C-3 3 -3 3 -5 0 C-3 -1 -3 -1 0 0 Z " fill="#84959C" transform="translate(83,133)"/>
<path d="M0 0 C0.33 0.66 0.66 1.32 1 2 C0.24074219 1.96519531 -0.51851562 1.93039063 -1.30078125 1.89453125 C-2.29464844 1.86746094 -3.28851563 1.84039062 -4.3125 1.8125 C-5.29863281 1.77769531 -6.28476562 1.74289063 -7.30078125 1.70703125 C-9.99759131 1.785901 -9.99759131 1.785901 -11.85546875 3.26171875 C-13.3666178 5.20993474 -13.3666178 5.20993474 -13 9 C-14.75 9.828125 -14.75 9.828125 -17 10.25 C-17.7425 10.39953125 -18.485 10.5490625 -19.25 10.703125 C-20.11625 10.85007812 -20.11625 10.85007812 -21 11 C-10.20463503 -1.81049976 -10.20463503 -1.81049976 0 0 Z " fill="#5FC0E1" transform="translate(69,60)"/>
<path d="M0 0 C4.52615993 3.67832017 8.39424999 7.41086363 12 12 C10.02 12.33 8.04 12.66 6 13 C5 10 5 10 6 8 C4.68 8.33 3.36 8.66 2 9 C2 7.35 2 5.7 2 4 C1.34 4 0.68 4 0 4 C0 2.68 0 1.36 0 0 Z " fill="#339FD0" transform="translate(74,66)"/>
<path d="M0 0 C2 0.875 2 0.875 4 2 C4 2.66 4 3.32 4 4 C4.66 4 5.32 4 6 4 C7.38938077 5.96147874 8.7260411 7.96166576 10 10 C8.68 10 7.36 10 6 10 C6 9.34 6 8.68 6 8 C4.02 8.66 2.04 9.32 0 10 C-0.33 9.01 -0.66 8.02 -1 7 C-0.01 7 0.98 7 2 7 C1.34 6.01 0.68 5.02 0 4 C0 2.68 0 1.36 0 0 Z " fill="#466684" transform="translate(122,9)"/>
<path d="M0 0 C0.33 0.66 0.66 1.32 1 2 C0.28972656 1.94199219 -0.42054687 1.88398438 -1.15234375 1.82421875 C-3.83932571 1.69231921 -6.33488872 1.61795469 -9 2 C-9.67958603 4.39719432 -9.67958603 4.39719432 -10 7 C-12.64671423 8.13757264 -15.13557295 8.49986194 -18 9 C-13.27098565 1.62830117 -9.31002601 -2.37314389 0 0 Z " fill="#7B92A7" transform="translate(121,7)"/>
<path d="M0 0 C0.66 0 1.32 0 2 0 C1.6875 2 1.6875 2 1 4 C0.01 4 -0.98 4 -2 4 C-2.73974057 5.79956908 -2.73974057 5.79956908 -3.0625 8 C-3.47265625 10.25 -3.47265625 10.25 -4 12 C-4.66 12 -5.32 12 -6 12 C-6.33 12.66 -6.66 13.32 -7 14 C-6.85962479 12.18706911 -6.71255111 10.3746557 -6.5625 8.5625 C-6.48128906 7.55316406 -6.40007812 6.54382812 -6.31640625 5.50390625 C-6 3 -6 3 -5 2 C-3.33382885 1.95936168 -1.66611905 1.957279 0 2 C0 1.34 0 0.68 0 0 Z " fill="#395D7D" transform="translate(95,26)"/>
<path d="M0 0 C1 2 1 2 -0.4375 5.625 C-1.2109375 7.295625 -1.2109375 7.295625 -2 9 C-6.43090471 7.79157144 -8.98112756 6.48331435 -12 3 C-11.01 2.67 -10.02 2.34 -9 2 C-8.67 2.66 -8.34 3.32 -8 4 C-4.63504852 3.65190157 -2.56650084 2.10819712 0 0 Z " fill="#909AA3" transform="translate(127,66)"/>
<path d="M0 0 C5.80517132 0.34148067 8.32050903 1.47948252 12 6 C14.6954691 9.67563969 13.83197664 12.67372146 13 17 C12.67 17 12.34 17 12 17 C11.92652344 16.04287109 11.92652344 16.04287109 11.8515625 15.06640625 C11.77679688 14.24011719 11.70203125 13.41382813 11.625 12.5625 C11.55539063 11.73878906 11.48578125 10.91507813 11.4140625 10.06640625 C11.20910156 9.04353516 11.20910156 9.04353516 11 8 C10.34 7.67 9.68 7.34 9 7 C8.67 7.66 8.34 8.32 8 9 C7.79375 8.05125 7.5875 7.1025 7.375 6.125 C6.29711753 2.70327629 6.29711753 2.70327629 2.875 1.6875 C1.451875 1.3471875 1.451875 1.3471875 0 1 C0 0.67 0 0.34 0 0 Z " fill="#D2D7DC" transform="translate(144,39)"/>
<path d="M0 0 C1.1725131 0.95117134 2.33787015 1.91117009 3.5 2.875 C4.47453125 3.67550781 4.47453125 3.67550781 5.46875 4.4921875 C7 6 7 6 7 8 C7.66 8.33 8.32 8.66 9 9 C9.66 9.33 10.32 9.66 11 10 C11 10.66 11 11.32 11 12 C7.5625 11.25 7.5625 11.25 4 10 C3.25 7.9375 3.25 7.9375 3 6 C2.01 5.67 1.02 5.34 0 5 C-0.1875 2.4375 -0.1875 2.4375 0 0 Z " fill="#88D1B4" transform="translate(141,104)"/>
<path d="M0 0 C0.33 0.99 0.66 1.98 1 3 C-0.3984375 4.82421875 -0.3984375 4.82421875 -2.375 6.6875 C-3.02210938 7.31011719 -3.66921875 7.93273437 -4.3359375 8.57421875 C-6 10 -6 10 -7 10 C-6.39169139 3.55192878 -6.39169139 3.55192878 -4.625 1.0625 C-3 0 -3 0 0 0 Z " fill="#576572" transform="translate(139,148)"/>
<path d="M0 0 C2.97 0.495 2.97 0.495 6 1 C6 1.66 6 2.32 6 3 C8.31029085 3.74259349 10.645752 4.411438 13 5 C13 3.68 13 2.36 13 1 C13.99 1 14.98 1 16 1 C16.33 1.99 16.66 2.98 17 4 C13.31401696 6.45732203 10.27880683 6.8219177 6 6 C3.55156209 4.5670195 2.01134919 3.06163292 0 1 C0 0.67 0 0.34 0 0 Z " fill="#78818B" transform="translate(106,164)"/>
<path d="M0 0 C0.99 0 1.98 0 3 0 C3.6875 2.5 3.6875 2.5 4 5 C5.32 4.67 6.64 4.34 8 4 C8 6.31 8 8.62 8 11 C1.29540481 5.9059081 1.29540481 5.9059081 0.0625 2.125 C0.041875 1.42375 0.02125 0.7225 0 0 Z " fill="#3AA3AC" transform="translate(88,66)"/>
<path d="M0 0 C6.45118631 -0.67907224 9.07692435 0.18131991 13.75 4.6875 C14.1625 5.120625 14.575 5.55375 15 6 C12 7 12 7 8 7 C8.33 5.35 8.66 3.7 9 2 C7.329375 2.061875 7.329375 2.061875 5.625 2.125 C2 2 2 2 0 0 Z " fill="#98DBC0" transform="translate(126,97)"/>
<path d="M0 0 C1.84765625 -0.29296875 1.84765625 -0.29296875 4.0625 -0.1875 C5.361875 -0.125625 6.66125 -0.06375 8 0 C7.67 2.97 7.34 5.94 7 9 C6.566875 8.34 6.13375 7.68 5.6875 7 C4.11369831 4.61785426 4.11369831 4.61785426 1 5 C1 4.34 1 3.68 1 3 C0.34 3 -0.32 3 -1 3 C-0.67 2.01 -0.34 1.02 0 0 Z " fill="#123150" transform="translate(153,101)"/>
<path d="M0 0 C8.05761317 6.58641975 8.05761317 6.58641975 11 11 C10.67 11.66 10.34 12.32 10 13 C9.01 12.67 8.02 12.34 7 12 C7 10.68 7 9.36 7 8 C5.68 8 4.36 8 3 8 C3 6.68 3 5.36 3 4 C1.68 4 0.36 4 -1 4 C-0.67 2.68 -0.34 1.36 0 0 Z " fill="#66798D" transform="translate(184,71)"/>
<path d="M0 0 C0.66 0.99 1.32 1.98 2 3 C0.69921875 5.04296875 0.69921875 5.04296875 -1.3125 7.1875 C-1.96863281 7.90292969 -2.62476563 8.61835937 -3.30078125 9.35546875 C-5 11 -5 11 -6 11 C-6 9.35 -6 7.7 -6 6 C-5.34 6 -4.68 6 -4 6 C-3.7834375 5.01 -3.7834375 5.01 -3.5625 4 C-3.376875 3.34 -3.19125 2.68 -3 2 C-2.01 2 -1.02 2 0 2 C0 1.34 0 0.68 0 0 Z " fill="#5B6D80" transform="translate(193,92)"/>
<path d="M0 0 C1 2 1 2 0 5 C-0.66 5 -1.32 5 -2 5 C-2.66179847 6.98045559 -2.66179847 6.98045559 -3 9 C-3.66 8.67 -4.32 8.34 -5 8 C-5 8.66 -5 9.32 -5 10 C-7 10.625 -7 10.625 -9 11 C-7.59155282 7.78475695 -5.89655214 5.67816132 -3.375 3.25 C-2.74335937 2.63640625 -2.11171875 2.0228125 -1.4609375 1.390625 C-0.73777344 0.70226562 -0.73777344 0.70226562 0 0 Z " fill="#44B1D8" transform="translate(47,71)"/>
<path d="M0 0 C4.13621084 3.3810038 7.81316569 6.66590534 11 11 C7 11 7 11 4.75 9.125 C3 7 3 7 3 5 C2.505 4.505 2.01 4.01 1.5 3.5 C0 2 0 2 0 0 Z " fill="#097B89" transform="translate(105,58)"/>
<path d="M0 0 C1 3 1 3 0 5 C0.99 5.33 1.98 5.66 3 6 C2.67 7.32 2.34 8.64 2 10 C-0.31 7.69 -2.62 5.38 -5 3 C-2 1 -2 1 0 0 Z " fill="#62707B" transform="translate(97,148)"/>
<path d="M0 0 C2.97 0.495 2.97 0.495 6 1 C6 1.99 6 2.98 6 4 C7.97080157 4.74276031 7.97080157 4.74276031 10 5 C9.67 6.65 9.34 8.3 9 10 C5.73991357 6.83047153 2.77762123 3.60062011 0 0 Z " fill="#4AB08A" transform="translate(135,127)"/>
<path d="M0 0 C0.33 0 0.66 0 1 0 C1.10824843 1.6026782 1.18570645 3.20745748 1.25 4.8125 C1.29640625 5.70582031 1.3428125 6.59914062 1.390625 7.51953125 C1 10 1 10 -1.015625 11.82421875 C-1.67046875 12.21222656 -2.3253125 12.60023438 -3 13 C-3.9765625 6.84765625 -3.9765625 6.84765625 -4 5 C-3.34 4.67 -2.68 4.34 -2 4 C-2 4.99 -2 5.98 -2 7 C-1.34 7 -0.68 7 0 7 C0 4.69 0 2.38 0 0 Z " fill="#55636E" transform="translate(143,137)"/>
<path d="M0 0 C5.26388436 -0.83743615 9.77289549 -0.43452242 14 3 C14.33 3.66 14.66 4.32 15 5 C13.35 5.33 11.7 5.66 10 6 C10 5.34 10 4.68 10 4 C9.34 4 8.68 4 8 4 C8 3.01 8 2.02 8 1 C3.545 1.495 3.545 1.495 -1 2 C-0.67 1.34 -0.34 0.68 0 0 Z " fill="#22A5D7" transform="translate(59,61)"/>
<path d="M0 0 C0 0.99 0 1.98 0 3 C-0.99 3.495 -0.99 3.495 -2 4 C-2.680625 5.485 -2.680625 5.485 -3.375 7 C-5 10 -5 10 -7.125 11 C-7.74375 11 -8.3625 11 -9 11 C-9.33 10.34 -9.66 9.68 -10 9 C-6.96640612 5.60951273 -3.59645104 2.77440509 0 0 Z " fill="#767F88" transform="translate(128,60)"/>
<path d="M0 0 C2.4375 0.25 2.4375 0.25 5 1 C5.36162029 2.32594105 5.69728039 3.65938457 6 5 C7.32 5 8.64 5 10 5 C10 6.65 10 8.3 10 10 C2.51708428 3.84965831 2.51708428 3.84965831 0 0 Z " fill="#4EB090" transform="translate(125,117)"/>
<path d="M0 0 C0.66 0.33 1.32 0.66 2 1 C1.34 1.66 0.68 2.32 0 3 C-0.433125 4.299375 -0.433125 4.299375 -0.875 5.625 C-1.24625 6.40875 -1.6175 7.1925 -2 8 C-3.32 8 -4.64 8 -6 8 C-6 8.99 -6 9.98 -6 11 C-6.66 10.67 -7.32 10.34 -8 10 C-5.84265738 6.02594781 -3.41624494 2.97826482 0 0 Z " fill="#57A7A5" transform="translate(96,98)"/>
<path d="M0 0 C2 0.375 2 0.375 4 1 C4 1.66 4 2.32 4 3 C4.9590625 2.7215625 4.9590625 2.7215625 5.9375 2.4375 C6.618125 2.293125 7.29875 2.14875 8 2 C9.82508534 3.82508534 9.05186183 6.56249376 9 9 C6.95880212 7.38405168 4.95927063 5.7143618 3 4 C3 3.34 3 2.68 3 2 C2.01 1.67 1.02 1.34 0 1 C0 0.67 0 0.34 0 0 Z " fill="#708091" transform="translate(150,103)"/>
<path d="M0 0 C7.26153846 -0.61538462 7.26153846 -0.61538462 11 2.5 C11.66 3.325 12.32 4.15 13 5 C11.35 5 9.7 5 8 5 C8 4.34 8 3.68 8 3 C6.18946308 2.34094585 6.18946308 2.34094585 4 1.9375 C2.65978714 1.65596223 1.32356743 1.3515726 0 1 C0 0.67 0 0.34 0 0 Z " fill="#4EA2A0" transform="translate(98,97)"/>
<path d="M0 0 C0 3.72055546 -0.81297638 5.01106771 -3 8 C-6.0625 10.375 -6.0625 10.375 -9 12 C-9.66 11.67 -10.32 11.34 -11 11 C-7.37 7.37 -3.74 3.74 0 0 Z " fill="#62778B" transform="translate(157,66)"/>
<path d="M0 0 C1.3936246 3.87117945 1.25077127 7.10053664 0 11 C-2.77512261 12.00700652 -4.99249118 11.95226176 -8 12 C-6.75 10.5 -6.75 10.5 -5 9 C-3.68 9 -2.36 9 -1 9 C-1.020625 7.88625 -1.04125 6.7725 -1.0625 5.625 C-1 2 -1 2 0 0 Z " fill="#81BDC8" transform="translate(88,30)"/>
<path d="M0 0 C2.64 0.33 5.28 0.66 8 1 C7.01 1.495 7.01 1.495 6 2 C5.67 2.99 5.34 3.98 5 5 C2 5 2 5 0 4 C0 2.68 0 1.36 0 0 Z " fill="#0D2D4D" transform="translate(185,92)"/>
<path d="M0 0 C0 4.45618642 -1.33286951 6.42043013 -4 10 C-7.25 9.4375 -7.25 9.4375 -10 8 C-9.34 7.67 -8.68 7.34 -8 7 C-7.34 7.33 -6.68 7.66 -6 8 C-6 7.34 -6 6.68 -6 6 C-4.37550757 4.29220027 -2.70779973 2.62449243 -1 1 C-0.67 0.67 -0.34 0.34 0 0 Z " fill="#A7AFB7" transform="translate(131,67)"/>
<path d="M0 0 C1.27350058 3.01009228 0.99687398 4.00781505 -0.25 7.125 C-2 10 -2 10 -5 12 C-4.42365861 7.24518354 -2.44931479 4.02951788 0 0 Z " fill="#A6AFB7" transform="translate(146,41)"/>
<path d="M0 0 C2.91808378 2.91808378 2.34484441 4.99980486 2 9 C1.01 10.32 0.02 11.64 -1 13 C-0.67 8.71 -0.34 4.42 0 0 Z " fill="#71B0D0" transform="translate(90,83)"/>
<path d="M0 0 C0 3.80345877 -1.13786331 4.77701015 -3.5 7.6875 C-4.47453125 8.89986328 -4.47453125 8.89986328 -5.46875 10.13671875 C-5.9740625 10.75160156 -6.479375 11.36648437 -7 12 C-8 10 -8 10 -7.375 8.1875 C-5.6068698 5.37456558 -3.40346016 3.2802058 -1 1 C-0.67 0.67 -0.34 0.34 0 0 Z " fill="#828C95" transform="translate(132,57)"/>
<path d="M0 0 C3.875 1.625 3.875 1.625 5 5 C4.67 5.99 4.34 6.98 4 8 C2.26776336 6.05651499 0.60118397 4.05279996 -1 2 C-0.67 1.34 -0.34 0.68 0 0 Z " fill="#5C6975" transform="translate(101,156)"/>
<path d="M0 0 C2.92206855 0.62615755 5.5501438 1.25010272 8 3 C8.25 5.625 8.25 5.625 8 8 C6.85073734 7.04578192 5.70569459 6.08647955 4.5625 5.125 C3.92441406 4.59132813 3.28632812 4.05765625 2.62890625 3.5078125 C1 2 1 2 0 0 Z " fill="#4FB594" transform="translate(117,109)"/>
<path d="M0 0 C0.99 0.33 1.98 0.66 3 1 C2.75 3.375 2.75 3.375 2 6 C-0.0625 7.3125 -0.0625 7.3125 -2 8 C-1.34 5.36 -0.68 2.72 0 0 Z " fill="#4E6178" transform="translate(175,108)"/>
<path d="M0 0 C5.875 4.625 5.875 4.625 7 8 C6.34 8 5.68 8 5 8 C5 7.34 5 6.68 5 6 C4.01 6 3.02 6 2 6 C2 6.66 2 7.32 2 8 C1.34 7.67 0.68 7.34 0 7 C-0.125 3.4375 -0.125 3.4375 0 0 Z " fill="#088596" transform="translate(94,46)"/>
<path d="M0 0 C0.66 0.33 1.32 0.66 2 1 C1.195625 1.763125 0.39125 2.52625 -0.4375 3.3125 C-3.16799024 5.79430898 -3.16799024 5.79430898 -4 9 C-6.5625 9.1875 -6.5625 9.1875 -9 9 C-7.33333333 7.33333333 -5.66666667 5.66666667 -4 4 C-3.278125 3.21625 -2.55625 2.4325 -1.8125 1.625 C-1.214375 1.08875 -0.61625 0.5525 0 0 Z " fill="#A4DCC7" transform="translate(124,98)"/>
<path d="M0 0 C0.66 0 1.32 0 2 0 C1.9375 1.875 1.9375 1.875 1 4 C-2.5625 5.25 -2.5625 5.25 -6 6 C-5.8125 4 -5.8125 4 -5 2 C-2.4375 1.75 -2.4375 1.75 0 2 C0 1.34 0 0.68 0 0 Z " fill="#496884" transform="translate(95,26)"/>
<path d="M0 0 C1 2 1 2 0 5 C-1.3125 6.75 -1.3125 6.75 -3 8 C-4.32 7.67 -5.64 7.34 -7 7 C-4.69 4.69 -2.38 2.38 0 0 Z " fill="#688197" transform="translate(98,20)"/>
<path d="M0 0 C-0.33 0.99 -0.66 1.98 -1 3 C-1.99 3 -2.98 3 -4 3 C-4.33 3.99 -4.66 4.98 -5 6 C-5.66 5.67 -6.32 5.34 -7 5 C-7 3.68 -7 2.36 -7 1 C-4.58479371 0.23730328 -2.52489145 0 0 0 Z " fill="#2D3E4F" transform="translate(133,151)"/>
<path d="M0 0 C2 0.875 2 0.875 4 2 C4 2.66 4 3.32 4 4 C4.66 4 5.32 4 6 4 C6 4.66 6 5.32 6 6 C3.5625 5.8125 3.5625 5.8125 1 5 C0.1875 2.4375 0.1875 2.4375 0 0 Z " fill="#7890A3" transform="translate(122,9)"/>
<path d="M0 0 C4.75 0.625 4.75 0.625 7 4 C4.0625 4.25 4.0625 4.25 1 4 C0.125 2 0.125 2 0 0 Z " fill="#455F77" transform="translate(177,67)"/>
<path d="M0 0 C1.98 1.65 3.96 3.3 6 5 C3 7 3 7 1 7 C0.67 4.69 0.34 2.38 0 0 Z " fill="#0C8FA3" transform="translate(88,40)"/>
<path d="M0 0 C1.98 1.65 3.96 3.3 6 5 C3 6 3 6 0 5 C-0.1875 2.4375 -0.1875 2.4375 0 0 Z " fill="#A5DDC6" transform="translate(141,104)"/>
<path d="M0 0 C1.9375 0.1875 1.9375 0.1875 4 1 C4.66 1.99 5.32 2.98 6 4 C4.02 4.33 2.04 4.66 0 5 C-1 2 -1 2 0 0 Z " fill="#2C96C7" transform="translate(80,74)"/>
<path d="M0 0 C1.65 0.33 3.3 0.66 5 1 C4.67 1.99 4.34 2.98 4 4 C2 3.6875 2 3.6875 0 3 C0 2.01 0 1.02 0 0 Z " fill="#1A3E60" transform="translate(169,62)"/>
<path d="M0 0 C1.6875 1.5625 1.6875 1.5625 3 3 C0.125 3.1875 0.125 3.1875 -3 3 C-3.66 2.01 -4.32 1.02 -5 0 C-3 -1 -3 -1 0 0 Z " fill="#449491" transform="translate(83,133)"/>
<path d="M0 0 C1.9375 0.125 1.9375 0.125 4 1 C4.75 4.0625 4.75 4.0625 5 7 C1.86141586 4.97510701 0.51827361 3.75748364 0 0 Z " fill="#4EB1BB" transform="translate(77,56)"/>
<path d="M0 0 C1.98 1.65 3.96 3.3 6 5 C5.01 5.33 4.02 5.66 3 6 C2.01 5.34 1.02 4.68 0 4 C0 2.68 0 1.36 0 0 Z " fill="#5B7188" transform="translate(136,23)"/>
</svg>
